<svg width="20" height="20" viewBox="0 0 20 20" fill="none" xmlns="http://www.w3.org/2000/svg">
<rect x="0.454545" y="0.454545" width="19.0909" height="19.0909" rx="9.54545" stroke="white" stroke-width="0.909091"/>
<path d="M10.0002 15.4544C10.1414 15.4544 10.2769 15.3983 10.3768 15.2984C10.4767 15.1985 10.5328 15.063 10.5328 14.9217V5.07796C10.5328 4.93669 10.4767 4.8012 10.3768 4.7013C10.2769 4.60141 10.1414 4.54529 10.0002 4.54529C9.85889 4.54529 9.72341 4.60141 9.62351 4.7013C9.52362 4.8012 9.4675 4.93669 9.4675 5.07796V14.9217C9.4675 15.063 9.52362 15.1985 9.62351 15.2984C9.72341 15.3983 9.85889 15.4544 10.0002 15.4544Z" fill="white"/>
<path d="M5.07829 10.5325H14.922C15.0633 10.5325 15.1988 10.4764 15.2987 10.3765C15.3986 10.2766 15.4547 10.1411 15.4547 9.99983C15.4547 9.85856 15.3986 9.72307 15.2987 9.62318C15.1988 9.52328 15.0633 9.46716 14.922 9.46716H5.07829C4.93702 9.46716 4.80153 9.52328 4.70164 9.62318C4.60174 9.72307 4.54562 9.85856 4.54562 9.99983C4.54562 10.1411 4.60174 10.2766 4.70164 10.3765C4.80153 10.4764 4.93702 10.5325 5.07829 10.5325Z" fill="white"/>
</svg>
