<svg width="20" height="20" viewBox="0 0 20 20" fill="none" xmlns="http://www.w3.org/2000/svg">
<path d="M18.9459 7.95808L18.4944 9.07498C18.3518 9.4552 18.3518 9.85919 18.4944 10.2394L18.9459 11.3563C19.2073 12.0217 18.9934 12.7821 18.3993 13.2099L17.4012 13.899C17.0685 14.1367 16.8547 14.4931 16.7596 14.8734L16.5457 16.0616C16.4032 16.7745 15.8091 17.2973 15.0961 17.321L13.8842 17.3686C13.4802 17.3923 13.1 17.5587 12.8148 17.8438L11.9831 18.7231C11.484 19.2459 10.6998 19.3647 10.082 19.0083L9.03636 18.3904C8.6799 18.1765 8.27592 18.129 7.87193 18.2241L6.68374 18.5092C5.99459 18.6756 5.25791 18.3429 4.92521 17.7013L4.37864 16.6081C4.18853 16.2517 3.8796 15.9665 3.49938 15.8477L2.35872 15.4675C1.66956 15.2298 1.24181 14.5644 1.31311 13.8515L1.43192 12.6396C1.47945 12.2356 1.36063 11.8316 1.09923 11.5227L0.338788 10.5721C-0.112726 10.0018 -0.112726 9.21756 0.338788 8.64723L1.09923 7.69667C1.36063 7.38774 1.47945 6.98376 1.43192 6.57977L1.31311 5.36782C1.24181 4.6549 1.66956 3.98951 2.35872 3.75187L3.49938 3.37165C3.8796 3.25283 4.18853 2.96767 4.37864 2.61121L4.92521 1.51807C5.25791 0.876449 5.97082 0.543754 6.68374 0.710101L7.87193 0.995268C8.25215 1.09032 8.6799 1.0428 9.03636 0.828921L10.082 0.211061C10.6998 -0.145397 11.484 -0.050342 11.9831 0.496227L12.8148 1.37549C13.1 1.66066 13.4802 1.85077 13.8842 1.85077L15.0961 1.89829C15.8091 1.92206 16.4269 2.44486 16.5457 3.15778L16.7596 4.34597C16.8309 4.74996 17.0685 5.10642 17.4012 5.32029L18.3993 6.00944C18.9934 6.53225 19.2311 7.29269 18.9459 7.95808Z" fill="#00D566"/>
<g opacity="0.15">
<path d="M5.61427 17.6296L5.0677 16.5365C4.87759 16.18 4.56866 15.8949 4.18844 15.776L3.04778 15.3958C2.35862 15.1582 1.93087 14.4928 2.00217 13.7799L2.12099 12.5679C2.16851 12.1639 2.04969 11.76 1.78829 11.451L1.02785 10.5005C0.576334 9.93014 0.576334 9.14593 1.02785 8.5756L1.78829 7.62505C2.04969 7.31612 2.16851 6.91213 2.12099 6.50814L2.00217 5.29619C1.93087 4.58327 2.35862 3.91788 3.04778 3.68025L4.18844 3.30002C4.56866 3.18121 4.87759 2.89604 5.0677 2.53958L5.61427 1.44644C5.80438 1.06622 6.13708 0.80482 6.49353 0.686C5.85191 0.590945 5.21029 0.923639 4.92512 1.51774L4.37855 2.61087C4.18844 2.96733 3.87951 3.2525 3.49929 3.37132L2.35862 3.75154C1.66947 3.98918 1.24172 4.65456 1.31301 5.36748L1.43183 6.57944C1.47936 6.98342 1.36054 7.38741 1.09914 7.69634L0.338696 8.64689C-0.112817 9.21723 -0.112817 10.0014 0.338696 10.5718L1.09914 11.5223C1.36054 11.8312 1.47936 12.2352 1.43183 12.6392L1.31301 13.8512C1.24172 14.5641 1.66947 15.2295 2.35862 15.4671L3.49929 15.8473C3.87951 15.9662 4.18844 16.2513 4.37855 16.6078L4.92512 17.7009C5.25781 18.3425 5.97073 18.6752 6.68365 18.5089L6.82623 18.4851C6.30342 18.3901 5.85191 18.1049 5.61427 17.6296Z" fill="black"/>
<path d="M9.70166 0.757237L10.7473 0.139377C10.8423 0.0918494 10.9374 0.0443217 11.0324 0.0205579C10.6997 -0.0269699 10.3433 0.044322 10.0581 0.210669L9.01251 0.828529C8.91745 0.876057 8.8224 0.923584 8.72734 0.947348C9.06003 0.994876 9.39273 0.947348 9.70166 0.757237Z" fill="black"/>
<path d="M14.5494 17.2731C14.4306 17.2731 14.3118 17.2969 14.2167 17.3206L15.0722 17.2731C15.191 17.2731 15.2861 17.2493 15.4049 17.2256L14.5494 17.2731Z" fill="black"/>
<path d="M10.7473 18.9132L9.70168 18.2953C9.34522 18.0814 8.94124 18.0339 8.53725 18.129L8.39467 18.1527C8.60854 18.1765 8.79865 18.2478 8.98877 18.3428L10.0344 18.9607C10.4384 19.1983 10.8899 19.2221 11.3176 19.0795C11.1275 19.0795 10.9374 19.032 10.7473 18.9132Z" fill="black"/>
</g>
<path d="M5.75684 8.14825L8.72732 11.5465L14.8109 6.65112" fill="#00D566"/>
<path d="M8.01447 13.3047C7.68178 13.3047 7.34908 13.1621 7.11144 12.9007L4.14096 9.50251C3.71321 9.00347 3.76074 8.26679 4.23602 7.81528C4.73506 7.38753 5.47174 7.43505 5.92325 7.91033L8.15705 10.4531L13.3613 6.27063C13.8604 5.86664 14.6208 5.93793 15.0248 6.46074C15.4288 6.98354 15.3575 7.72022 14.8347 8.12421L8.75115 13.0433C8.53728 13.2097 8.27587 13.3047 8.01447 13.3047Z" fill="white"/>
</svg>
