<svg width="23" height="23" viewBox="0 0 23 23" fill="none" xmlns="http://www.w3.org/2000/svg">
<path d="M11.1535 21.6535C16.9525 21.6535 21.6535 16.9525 21.6535 11.1535C21.6535 5.35451 16.9525 0.653503 11.1535 0.653503C5.35454 0.653503 0.653526 5.35451 0.653526 11.1535C0.653526 16.9525 5.35454 21.6535 11.1535 21.6535Z" stroke="#111111" stroke-width="1.30705" stroke-miterlimit="10" stroke-linecap="round" stroke-linejoin="round"/>
<path d="M7.48255 8.9939C7.97123 9.48257 8.27352 10.1577 8.27352 10.9035C8.27352 11.6492 7.97127 12.3243 7.48255 12.813" stroke="#FF8303" stroke-width="1.25731" stroke-miterlimit="10" stroke-linecap="round" stroke-linejoin="round"/>
<path d="M9.84513 7.19128C10.7952 8.14134 11.3828 9.45385 11.3828 10.9036C11.3828 12.2527 10.874 13.4829 10.0377 14.4128" stroke="#FF8303" stroke-width="1.25731" stroke-miterlimit="10" stroke-linecap="round" stroke-linejoin="round"/>
<path d="M12.9544 5.65338C14.2144 7.04016 14.9823 8.88207 14.9823 10.9034C14.9823 12.9247 14.2144 14.7666 12.9544 16.1534" stroke="#FF8303" stroke-width="1.25731" stroke-miterlimit="10" stroke-linecap="round" stroke-linejoin="round"/>
</svg>
