<svg width="23" height="23" viewBox="0 0 23 23" fill="none" xmlns="http://www.w3.org/2000/svg">
<path d="M11.05 21.55C16.849 21.55 21.55 16.849 21.55 11.05C21.55 5.25106 16.849 0.550049 11.05 0.550049C5.25101 0.550049 0.550003 5.25106 0.550003 11.05C0.550003 16.849 5.25101 21.55 11.05 21.55Z" stroke="white" stroke-width="1.1" stroke-miterlimit="10" stroke-linecap="round" stroke-linejoin="round"/>
<path d="M7.37901 8.89038C7.86769 9.37906 8.16998 10.0542 8.16998 10.7999C8.16998 11.5457 7.86774 12.2208 7.37901 12.7095" stroke="#FF8303" stroke-width="1.1" stroke-miterlimit="10" stroke-linecap="round" stroke-linejoin="round"/>
<path d="M9.74161 7.08777C10.6917 8.03782 11.2793 9.35034 11.2793 10.8001C11.2793 12.1491 10.7705 13.3794 9.93416 14.3093" stroke="#FF8303" stroke-width="1.1" stroke-miterlimit="10" stroke-linecap="round" stroke-linejoin="round"/>
<path d="M12.8509 5.5498C14.1109 6.93659 14.8787 8.7785 14.8787 10.7998C14.8787 12.8211 14.1108 14.663 12.8509 16.0498" stroke="#FF8303" stroke-width="1.1" stroke-miterlimit="10" stroke-linecap="round" stroke-linejoin="round"/>
</svg>
