<svg width="24" height="24" viewBox="0 0 24 24" fill="none" xmlns="http://www.w3.org/2000/svg">
<g clip-path="url(#clip0_984_2616)">
<path d="M22.4437 20.1565H1.55625C0.698418 20.1565 0 19.458 0 18.5955V5.40488C0 4.54709 0.698418 3.84863 1.55625 3.84863H22.4391C23.3016 3.84863 24 4.54705 24 5.40488V18.5955C24 19.458 23.3015 20.1565 22.4437 20.1565Z" fill="url(#paint0_linear_984_2616)"/>
<path d="M24 13.3828V15.2859C22.875 15.0703 21.7782 14.9765 20.6907 15.0844C18.7266 15.2812 16.9032 16.2 14.9485 17.9765C14.6344 18.2625 14.3156 18.5578 14.011 18.8437C13.5422 19.2797 13.0735 19.7203 12.5813 20.1515H9.54379C10.6688 19.4015 11.6766 18.4594 12.7313 17.475C13.0454 17.1844 13.3641 16.8797 13.6875 16.5891C15.9563 14.5312 18.1219 13.4578 20.5032 13.2188C21.6797 13.1015 22.8704 13.1953 24 13.3828ZM12.5203 3.84839C12.361 8.66247 8.39534 12.5249 3.54376 12.5249C2.28753 12.5249 1.08753 12.2672 0 11.7937V9.69841C1.04531 10.3031 2.25467 10.6453 3.54376 10.6453C7.3594 10.6453 10.4813 7.62185 10.6406 3.84375H12.5203V3.84839Z" fill="url(#paint1_linear_984_2616)"/>
<path d="M24 17.8965V18.5997C24 19.4622 23.3016 20.1559 22.4437 20.1559H1.55625C0.698418 20.1559 0 19.4575 0 18.595V17.8918H24V17.8965Z" fill="url(#paint2_linear_984_2616)"/>
<path d="M22.2422 20.1562H22.4437C23.3063 20.1562 24 19.4578 24 18.6V5.40464C24 4.54685 23.3016 3.84839 22.4437 3.84839H22.2422V20.1562Z" fill="url(#paint3_linear_984_2616)"/>
<path d="M24 6.10778V5.40464C24 4.54685 23.3016 3.84839 22.4437 3.84839H1.55625C0.698418 3.84839 0 4.54685 0 5.40464V6.10778H24Z" fill="url(#paint4_linear_984_2616)"/>
<path d="M1.75781 3.84839H1.55625C0.698418 3.84839 0 4.54685 0 5.40464V18.5953C0 19.4578 0.698418 20.1515 1.55625 20.1515H1.75781V3.84839Z" fill="url(#paint5_linear_984_2616)"/>
<path d="M5.02502 11.7843H2.72344C2.37187 11.7843 2.08594 11.4984 2.08594 11.1468V9.6187C2.08594 9.26713 2.37187 8.9812 2.72344 8.9812H5.02502C5.37659 8.9812 5.66252 9.26713 5.66252 9.6187V11.1468C5.65783 11.5031 5.37659 11.7843 5.02502 11.7843Z" fill="url(#paint6_linear_984_2616)"/>
<path d="M5.02487 11.7466H2.71861C2.39049 11.7466 2.12329 11.4794 2.12329 11.1513V9.61851C2.12329 9.29039 2.39049 9.02319 2.71861 9.02319H5.02487C5.35298 9.02319 5.62018 9.29039 5.62018 9.61851V11.1513C5.62018 11.4794 5.35298 11.7466 5.02487 11.7466Z" fill="url(#paint7_linear_984_2616)"/>
<path d="M5.62027 10.4343V10.3406H4.40151V9.92809L4.71557 9.61403H5.62027C5.62027 9.58121 5.61559 9.54839 5.61091 9.52029H4.69216C4.67811 9.52029 4.66871 9.52497 4.65934 9.53434L4.33122 9.86246H3.9187V9.02808H3.82496V9.86246H3.41716L3.08904 9.53434C3.07967 9.52497 3.06559 9.52029 3.05622 9.52029H2.13275C2.12807 9.54843 2.12338 9.58125 2.12338 9.61403H3.03745L3.34683 9.92341V10.3406H2.12338V10.4343H3.34683V10.8515L3.03745 11.1609H2.12338C2.12338 11.1937 2.12807 11.2265 2.13275 11.2546H3.05618C3.07023 11.2546 3.07963 11.2499 3.089 11.2406L3.41712 10.9124H3.82496V11.7468H3.9187V10.9124H4.33118L4.6593 11.2406C4.66867 11.2499 4.67803 11.2546 4.69212 11.2546H5.61087C5.61555 11.2265 5.62023 11.1937 5.62023 11.1609H4.71553L4.40147 10.8468V10.4343H5.62027ZM4.30777 10.8187H3.44057V9.95151H4.30777V10.8187Z" fill="url(#paint8_linear_984_2616)"/>
<path d="M5.02026 9.02319H5.02495C5.35306 9.02319 5.62026 9.29039 5.62026 9.61851V11.1513C5.62026 11.4794 5.35306 11.7466 5.02495 11.7466H5.02026V9.02319Z" fill="url(#paint9_linear_984_2616)"/>
<path d="M5.62003 11.1794C5.60598 11.4935 5.34346 11.7466 5.02471 11.7466H2.71845C2.3997 11.7466 2.13719 11.4935 2.12314 11.1794H5.62003Z" fill="url(#paint10_linear_984_2616)"/>
<path d="M2.72791 9.02319H2.71855C2.39043 9.02319 2.12323 9.29039 2.12323 9.61851V11.1513C2.12323 11.4794 2.39043 11.7466 2.71855 11.7466H2.72323V9.02319H2.72791Z" fill="url(#paint11_linear_984_2616)"/>
<path d="M5.62012 9.59037C5.60607 9.27631 5.34356 9.02319 5.02481 9.02319H2.71855C2.3998 9.02319 2.13728 9.27631 2.12323 9.59037H5.62012Z" fill="url(#paint12_linear_984_2616)"/>
<path d="M21.4875 11.7188C21.4641 11.7188 21.4453 11.7141 21.4266 11.7047C21.3562 11.6719 21.3281 11.5875 21.3656 11.5172C21.7265 10.8 21.7265 9.97969 21.3656 9.26254C21.3328 9.19222 21.3609 9.10785 21.4266 9.07503C21.4969 9.04221 21.5813 9.07035 21.6141 9.13599C22.0172 9.93286 22.0172 10.8469 21.6141 11.6438C21.5859 11.6907 21.5391 11.7188 21.4875 11.7188ZM21.0047 11.4516C21.3844 10.7766 21.3844 9.9985 21.0047 9.3235C20.9672 9.25786 20.8828 9.22976 20.8125 9.27195C20.7469 9.30945 20.7188 9.39382 20.761 9.46414C21.0938 10.0548 21.0938 10.7298 20.761 11.3157C20.7235 11.3813 20.7469 11.4704 20.8125 11.5079C20.836 11.5219 20.8594 11.5266 20.8828 11.5266C20.9297 11.5219 20.9766 11.4938 21.0047 11.4516ZM20.4047 11.2594C20.775 10.7204 20.775 10.0501 20.4047 9.50629C20.3625 9.44065 20.2735 9.4266 20.2078 9.46879C20.1422 9.51097 20.1281 9.60002 20.1703 9.66566C20.4703 10.1063 20.4703 10.6594 20.1703 11.1C20.1281 11.1657 20.1422 11.2501 20.2078 11.2969C20.2313 11.3156 20.2594 11.3204 20.2875 11.3204C20.3344 11.3251 20.3766 11.3016 20.4047 11.2594ZM19.7719 11.0813C19.9781 10.8938 20.0906 10.6453 20.0906 10.3875C20.0906 10.1297 19.9781 9.88127 19.7719 9.6938C19.7157 9.64225 19.6266 9.64225 19.575 9.70317C19.5235 9.7594 19.5235 9.84849 19.5844 9.90004C19.7297 10.036 19.8094 10.2094 19.8094 10.3875C19.8094 10.5656 19.7297 10.7391 19.5844 10.875C19.5281 10.9266 19.5235 11.0157 19.575 11.0719C19.6031 11.1 19.6406 11.1188 19.6782 11.1188C19.711 11.1188 19.7438 11.1047 19.7719 11.0813Z" fill="url(#paint13_linear_984_2616)"/>
<path d="M11.8593 17.7937H2.26403C2.18434 17.7937 2.12338 17.7328 2.12338 17.6531C2.12338 17.5734 2.18434 17.5125 2.26403 17.5125H11.8593C11.939 17.5125 12 17.5734 12 17.6531C11.9999 17.7328 11.939 17.7937 11.8593 17.7937Z" fill="url(#paint14_linear_984_2616)"/>
<path d="M21.7732 17.7937H19.9639C19.8842 17.7937 19.8232 17.7328 19.8232 17.6531C19.8232 17.5734 19.8842 17.5125 19.9639 17.5125H21.7732C21.8529 17.5125 21.9138 17.5734 21.9138 17.6531C21.9139 17.7328 21.8483 17.7937 21.7732 17.7937ZM19.1951 17.6531C19.1951 17.5734 19.1342 17.5125 19.0545 17.5125H17.2451C17.1654 17.5125 17.1045 17.5734 17.1045 17.6531C17.1045 17.7328 17.1654 17.7938 17.2451 17.7938H19.0545C19.1342 17.7937 19.1951 17.7281 19.1951 17.6531Z" fill="url(#paint15_linear_984_2616)"/>
<path d="M2.26403 7.04511C2.18434 7.04511 2.12338 6.98416 2.12338 6.90447V6.35134C2.12338 6.27165 2.18434 6.21069 2.26403 6.21069C2.34371 6.21069 2.40467 6.27165 2.40467 6.35134V6.89979C2.40463 6.97951 2.34371 7.04511 2.26403 7.04511ZM3.16869 6.90451V6.35138C3.16869 6.27169 3.10773 6.21073 3.02804 6.21073C2.94836 6.21073 2.8874 6.27169 2.8874 6.35138V6.89982C2.8874 6.97951 2.94836 7.04047 3.02804 7.04047C3.10777 7.04511 3.16869 6.97951 3.16869 6.90451ZM3.93747 6.90451V6.35138C3.93747 6.27169 3.87651 6.21073 3.79682 6.21073C3.71714 6.21073 3.65618 6.27169 3.65618 6.35138V6.89982C3.65618 6.97951 3.71714 7.04047 3.79682 7.04047C3.87183 7.04511 3.93747 6.97951 3.93747 6.90451ZM4.70152 6.90451V6.35138C4.70152 6.27169 4.64057 6.21073 4.56088 6.21073C4.48119 6.21073 4.42024 6.27169 4.42024 6.35138V6.89982C4.42024 6.97951 4.48119 7.04047 4.56088 7.04047C4.64057 7.04511 4.70152 6.97951 4.70152 6.90451Z" fill="url(#paint16_linear_984_2616)"/>
<path d="M2.5731 15.4082H2.54968C2.3153 15.4082 2.12311 15.216 2.12311 14.9816V14.316C2.12311 14.0816 2.3153 13.8894 2.54968 13.8894H2.57314C2.80752 13.8894 2.99971 14.0816 2.99971 14.316V14.9816C2.99967 15.216 2.81216 15.4082 2.5731 15.4082ZM2.54968 14.1707C2.47 14.1707 2.40436 14.2363 2.40436 14.316V14.9817C2.40436 15.0613 2.47 15.127 2.54968 15.127H2.57314C2.65282 15.127 2.71846 15.0613 2.71846 14.9817V14.316C2.71846 14.2363 2.65282 14.1707 2.57314 14.1707H2.54968Z" fill="url(#paint17_linear_984_2616)"/>
<path d="M3.71263 15.4082H3.68918C3.4548 15.4082 3.2626 15.216 3.2626 14.9816V14.316C3.2626 14.0816 3.4548 13.8894 3.68918 13.8894H3.71263C3.94701 13.8894 4.13921 14.0816 4.13921 14.316V14.9816C4.13921 15.216 3.94701 15.4082 3.71263 15.4082ZM3.68918 14.1707C3.60949 14.1707 3.54385 14.2363 3.54385 14.316V14.9817C3.54385 15.0613 3.60949 15.127 3.68918 15.127H3.71263C3.79232 15.127 3.85796 15.0613 3.85796 14.9817V14.316C3.85796 14.2363 3.79232 14.1707 3.71263 14.1707H3.68918Z" fill="url(#paint18_linear_984_2616)"/>
<path d="M4.85109 15.4082H4.82764C4.59326 15.4082 4.40106 15.216 4.40106 14.9816V14.316C4.40106 14.0816 4.59326 13.8894 4.82764 13.8894H4.85109C5.08547 13.8894 5.27767 14.0816 5.27767 14.316V14.9816C5.27767 15.216 5.08547 15.4082 4.85109 15.4082ZM4.82768 14.1707C4.74799 14.1707 4.68235 14.2363 4.68235 14.316V14.9817C4.68235 15.0613 4.74799 15.127 4.82768 15.127H4.85113C4.93082 15.127 4.99646 15.0613 4.99646 14.9817V14.316C4.99646 14.2363 4.93082 14.1707 4.85113 14.1707H4.82768Z" fill="url(#paint19_linear_984_2616)"/>
<path d="M5.9901 15.4082H5.96664C5.73226 15.4082 5.54007 15.216 5.54007 14.9816V14.316C5.54007 14.0816 5.73226 13.8894 5.96664 13.8894H5.9901C6.22448 13.8894 6.41667 14.0816 6.41667 14.316V14.9816C6.41667 15.216 6.22448 15.4082 5.9901 15.4082ZM5.96664 14.1707C5.88696 14.1707 5.82132 14.2363 5.82132 14.316V14.9817C5.82132 15.0613 5.88696 15.127 5.96664 15.127H5.9901C6.06979 15.127 6.13542 15.0613 6.13542 14.9817V14.316C6.13542 14.2363 6.06979 14.1707 5.9901 14.1707H5.96664Z" fill="url(#paint20_linear_984_2616)"/>
<path d="M7.73885 15.4082H7.71539C7.48101 15.4082 7.28882 15.216 7.28882 14.9816V14.316C7.28882 14.0816 7.48101 13.8894 7.71539 13.8894H7.73885C7.97323 13.8894 8.16542 14.0816 8.16542 14.316V14.9816C8.16538 15.216 7.97323 15.4082 7.73885 15.4082ZM7.71539 14.1707C7.63571 14.1707 7.57007 14.2363 7.57007 14.316V14.9817C7.57007 15.0613 7.63571 15.127 7.71539 15.127H7.73885C7.81853 15.127 7.88417 15.0613 7.88417 14.9817V14.316C7.88417 14.2363 7.81853 14.1707 7.73885 14.1707H7.71539Z" fill="url(#paint21_linear_984_2616)"/>
<path d="M8.87779 15.4082H8.85434C8.61996 15.4082 8.42776 15.216 8.42776 14.9816V14.316C8.42776 14.0816 8.61996 13.8894 8.85434 13.8894H8.87779C9.11217 13.8894 9.30437 14.0816 9.30437 14.316V14.9816C9.30437 15.216 9.11217 15.4082 8.87779 15.4082ZM8.85438 14.1707C8.77469 14.1707 8.70905 14.2363 8.70905 14.316V14.9817C8.70905 15.0613 8.77469 15.127 8.85438 15.127H8.87783C8.95752 15.127 9.02316 15.0613 9.02316 14.9817V14.316C9.02316 14.2363 8.95752 14.1707 8.87783 14.1707H8.85438Z" fill="url(#paint22_linear_984_2616)"/>
<path d="M10.0174 15.4082H9.99393C9.75955 15.4082 9.56735 15.216 9.56735 14.9816V14.316C9.56735 14.0816 9.75955 13.8894 9.99393 13.8894H10.0174C10.2518 13.8894 10.444 14.0816 10.444 14.316V14.9816C10.4439 15.216 10.2518 15.4082 10.0174 15.4082ZM9.99393 14.1707C9.91424 14.1707 9.8486 14.2363 9.8486 14.316V14.9817C9.8486 15.0613 9.91424 15.127 9.99393 15.127H10.0174C10.0971 15.127 10.1627 15.0613 10.1627 14.9817V14.316C10.1627 14.2363 10.0971 14.1707 10.0174 14.1707H9.99393Z" fill="url(#paint23_linear_984_2616)"/>
<path d="M11.1558 15.4082H11.1324C10.898 15.4082 10.7058 15.216 10.7058 14.9816V14.316C10.7058 14.0816 10.898 13.8894 11.1324 13.8894H11.1558C11.3902 13.8894 11.5824 14.0816 11.5824 14.316V14.9816C11.5824 15.216 11.3902 15.4082 11.1558 15.4082ZM11.1324 14.1707C11.0527 14.1707 10.9871 14.2363 10.9871 14.316V14.9817C10.9871 15.0613 11.0527 15.127 11.1324 15.127H11.1559C11.2356 15.127 11.3012 15.0613 11.3012 14.9817V14.316C11.3012 14.2363 11.2356 14.1707 11.1559 14.1707H11.1324Z" fill="url(#paint24_linear_984_2616)"/>
<path d="M12.9042 15.4082H12.8808C12.6464 15.4082 12.4542 15.216 12.4542 14.9816V14.316C12.4542 14.0816 12.6464 13.8894 12.8808 13.8894H12.9042C13.1386 13.8894 13.3308 14.0816 13.3308 14.316V14.9816C13.3308 15.216 13.1386 15.4082 12.9042 15.4082ZM12.8808 14.1707C12.8011 14.1707 12.7355 14.2363 12.7355 14.316V14.9817C12.7355 15.0613 12.8011 15.127 12.8808 15.127H12.9043C12.9839 15.127 13.0496 15.0613 13.0496 14.9817V14.316C13.0496 14.2363 12.9839 14.1707 12.9043 14.1707H12.8808Z" fill="url(#paint25_linear_984_2616)"/>
<path d="M14.0434 15.4082H14.0199C13.7855 15.4082 13.5934 15.216 13.5934 14.9816V14.316C13.5934 14.0816 13.7855 13.8894 14.0199 13.8894H14.0434C14.2778 13.8894 14.47 14.0816 14.47 14.316V14.9816C14.4699 15.216 14.2778 15.4082 14.0434 15.4082ZM14.0199 14.1707C13.9402 14.1707 13.8746 14.2363 13.8746 14.316V14.9817C13.8746 15.0613 13.9402 15.127 14.0199 15.127H14.0434C14.1231 15.127 14.1887 15.0613 14.1887 14.9817V14.316C14.1887 14.2363 14.1231 14.1707 14.0434 14.1707H14.0199Z" fill="url(#paint26_linear_984_2616)"/>
<path d="M15.1823 15.4082H15.1589C14.9245 15.4082 14.7323 15.216 14.7323 14.9816V14.316C14.7323 14.0816 14.9245 13.8894 15.1589 13.8894H15.1823C15.4167 13.8894 15.6089 14.0816 15.6089 14.316V14.9816C15.6089 15.216 15.4167 15.4082 15.1823 15.4082ZM15.1589 14.1707C15.0792 14.1707 15.0136 14.2363 15.0136 14.316V14.9817C15.0136 15.0613 15.0792 15.127 15.1589 15.127H15.1824C15.2621 15.127 15.3277 15.0613 15.3277 14.9817V14.316C15.3277 14.2363 15.2621 14.1707 15.1824 14.1707H15.1589Z" fill="url(#paint27_linear_984_2616)"/>
<path d="M16.3219 15.4082H16.2985C16.0641 15.4082 15.8719 15.216 15.8719 14.9816V14.316C15.8719 14.0816 16.0641 13.8894 16.2985 13.8894H16.3219C16.5563 13.8894 16.7485 14.0816 16.7485 14.316V14.9816C16.7485 15.216 16.5563 15.4082 16.3219 15.4082ZM16.2985 14.1707C16.2188 14.1707 16.1531 14.2363 16.1531 14.316V14.9817C16.1531 15.0613 16.2188 15.127 16.2985 15.127H16.3219C16.4016 15.127 16.4672 15.0613 16.4672 14.9817V14.316C16.4672 14.2363 16.4016 14.1707 16.3219 14.1707H16.2985Z" fill="url(#paint28_linear_984_2616)"/>
<path d="M18.0699 15.4082H18.0464C17.8121 15.4082 17.6199 15.216 17.6199 14.9816V14.316C17.6199 14.0816 17.8121 13.8894 18.0464 13.8894H18.0699C18.3043 13.8894 18.4965 14.0816 18.4965 14.316V14.9816C18.4965 15.216 18.3043 15.4082 18.0699 15.4082ZM18.0465 14.1707C17.9668 14.1707 17.9012 14.2363 17.9012 14.316V14.9817C17.9012 15.0613 17.9668 15.127 18.0465 15.127H18.0699C18.1496 15.127 18.2153 15.0613 18.2153 14.9817V14.316C18.2153 14.2363 18.1496 14.1707 18.0699 14.1707H18.0465Z" fill="url(#paint29_linear_984_2616)"/>
<path d="M19.2089 15.4082H19.1855C18.9511 15.4082 18.7589 15.216 18.7589 14.9816V14.316C18.7589 14.0816 18.9511 13.8894 19.1855 13.8894H19.2089C19.4433 13.8894 19.6355 14.0816 19.6355 14.316V14.9816C19.6355 15.216 19.4433 15.4082 19.2089 15.4082ZM19.1855 14.1707C19.1058 14.1707 19.0401 14.2363 19.0401 14.316V14.9817C19.0401 15.0613 19.1058 15.127 19.1855 15.127H19.2089C19.2886 15.127 19.3542 15.0613 19.3542 14.9817V14.316C19.3542 14.2363 19.2886 14.1707 19.2089 14.1707H19.1855Z" fill="url(#paint30_linear_984_2616)"/>
<path d="M20.3482 15.4082H20.3248C20.0904 15.4082 19.8982 15.216 19.8982 14.9816V14.316C19.8982 14.0816 20.0904 13.8894 20.3248 13.8894H20.3482C20.5826 13.8894 20.7748 14.0816 20.7748 14.316V14.9816C20.7748 15.216 20.5826 15.4082 20.3482 15.4082ZM20.3248 14.1707C20.2451 14.1707 20.1794 14.2363 20.1794 14.316V14.9817C20.1794 15.0613 20.2451 15.127 20.3248 15.127H20.3482C20.4279 15.127 20.4935 15.0613 20.4935 14.9817V14.316C20.4935 14.2363 20.4279 14.1707 20.3482 14.1707H20.3248Z" fill="url(#paint31_linear_984_2616)"/>
<path d="M21.4872 15.4082H21.4637C21.2293 15.4082 21.0371 15.216 21.0371 14.9816V14.316C21.0371 14.0816 21.2293 13.8894 21.4637 13.8894H21.4872C21.7215 13.8894 21.9137 14.0816 21.9137 14.316V14.9816C21.9137 15.216 21.7215 15.4082 21.4872 15.4082ZM21.4637 14.1707C21.384 14.1707 21.3184 14.2363 21.3184 14.316V14.9817C21.3184 15.0613 21.384 15.127 21.4637 15.127H21.4872C21.5669 15.127 21.6325 15.0613 21.6325 14.9817V14.316C21.6325 14.2363 21.5669 14.1707 21.4872 14.1707H21.4637Z" fill="url(#paint32_linear_984_2616)"/>
</g>
<defs>
<linearGradient id="paint0_linear_984_2616" x1="-0.087322" y1="4.3508" x2="23.6573" y2="19.3827" gradientUnits="userSpaceOnUse">
<stop stop-color="#7B7DA1"/>
<stop offset="0.3104" stop-color="#696B97"/>
<stop offset="0.8987" stop-color="#494C6D"/>
<stop offset="1" stop-color="#010216"/>
</linearGradient>
<linearGradient id="paint1_linear_984_2616" x1="0.0722897" y1="5.00459" x2="23.0868" y2="19.6894" gradientUnits="userSpaceOnUse">
<stop stop-color="#8587AE"/>
<stop offset="0.3104" stop-color="#888AB4"/>
<stop offset="0.8987" stop-color="#51557A"/>
<stop offset="1" stop-color="#4A4E73"/>
</linearGradient>
<linearGradient id="paint2_linear_984_2616" x1="12" y1="20.2659" x2="12" y2="18.7178" gradientUnits="userSpaceOnUse">
<stop stop-color="#32365C"/>
<stop offset="1" stop-color="#32365C" stop-opacity="0"/>
</linearGradient>
<linearGradient id="paint3_linear_984_2616" x1="24.022" y1="12.0023" x2="22.5297" y2="12.0023" gradientUnits="userSpaceOnUse">
<stop stop-color="#32365C"/>
<stop offset="1" stop-color="#32365C" stop-opacity="0"/>
</linearGradient>
<linearGradient id="paint4_linear_984_2616" x1="12" y1="3.73749" x2="12" y2="5.28556" gradientUnits="userSpaceOnUse">
<stop stop-color="#A1A4C7"/>
<stop offset="1" stop-color="#A1A4C7" stop-opacity="0"/>
</linearGradient>
<linearGradient id="paint5_linear_984_2616" x1="-0.0221158" y1="12" x2="1.28508" y2="12" gradientUnits="userSpaceOnUse">
<stop stop-color="#A1A4C7"/>
<stop offset="1" stop-color="#A1A4C7" stop-opacity="0"/>
</linearGradient>
<linearGradient id="paint6_linear_984_2616" x1="1.00222" y1="7.51074" x2="6.06056" y2="12.5691" gradientUnits="userSpaceOnUse">
<stop stop-color="#7B7DA1"/>
<stop offset="0.4958" stop-color="#616386"/>
<stop offset="1" stop-color="#424566"/>
</linearGradient>
<linearGradient id="paint7_linear_984_2616" x1="2.31604" y1="9.19925" x2="5.4357" y2="11.5769" gradientUnits="userSpaceOnUse">
<stop stop-color="#FFED81"/>
<stop offset="0.2348" stop-color="#FFD968"/>
<stop offset="0.7302" stop-color="#FFA629"/>
<stop offset="1" stop-color="#FF8804"/>
</linearGradient>
<linearGradient id="paint8_linear_984_2616" x1="2.32467" y1="9.25754" x2="5.44992" y2="11.54" gradientUnits="userSpaceOnUse">
<stop stop-color="#EFA33D"/>
<stop offset="1" stop-color="#A05223"/>
</linearGradient>
<linearGradient id="paint9_linear_984_2616" x1="5.62215" y1="10.3849" x2="5.22297" y2="10.3849" gradientUnits="userSpaceOnUse">
<stop stop-color="#FF8804"/>
<stop offset="1" stop-color="#FF8804" stop-opacity="0"/>
</linearGradient>
<linearGradient id="paint10_linear_984_2616" x1="3.87158" y1="11.7426" x2="3.87158" y2="11.311" gradientUnits="userSpaceOnUse">
<stop stop-color="#FF8804"/>
<stop offset="1" stop-color="#FF8804" stop-opacity="0"/>
</linearGradient>
<linearGradient id="paint11_linear_984_2616" x1="2.12323" y1="10.3849" x2="2.46394" y2="10.3849" gradientUnits="userSpaceOnUse">
<stop stop-color="#FFF0A9"/>
<stop offset="1" stop-color="#FFF0A9" stop-opacity="0"/>
</linearGradient>
<linearGradient id="paint12_linear_984_2616" x1="3.87168" y1="9.02862" x2="3.87168" y2="9.46012" gradientUnits="userSpaceOnUse">
<stop stop-color="#FFF0A9"/>
<stop offset="1" stop-color="#FFF0A9" stop-opacity="0"/>
</linearGradient>
<linearGradient id="paint13_linear_984_2616" x1="19.8783" y1="9.38304" x2="21.8891" y2="11.3938" gradientUnits="userSpaceOnUse">
<stop stop-color="#E9EDFF"/>
<stop offset="1" stop-color="#C4CBFF"/>
</linearGradient>
<linearGradient id="paint14_linear_984_2616" x1="7.06166" y1="17.4894" x2="7.06166" y2="17.7826" gradientUnits="userSpaceOnUse">
<stop stop-color="#C4CBFF"/>
<stop offset="0.5251" stop-color="#E9EDFF"/>
<stop offset="1" stop-color="#C4CBFF"/>
</linearGradient>
<linearGradient id="paint15_linear_984_2616" x1="19.5092" y1="17.4834" x2="19.5092" y2="17.7995" gradientUnits="userSpaceOnUse">
<stop stop-color="#C4CBFF"/>
<stop offset="0.5251" stop-color="#E9EDFF"/>
<stop offset="1" stop-color="#C4CBFF"/>
</linearGradient>
<linearGradient id="paint16_linear_984_2616" x1="2.0496" y1="6.21514" x2="4.73643" y2="7.02898" gradientUnits="userSpaceOnUse">
<stop stop-color="#E9EDFF"/>
<stop offset="1" stop-color="#C4CBFF"/>
</linearGradient>
<linearGradient id="paint17_linear_984_2616" x1="2.12311" y1="14.6488" x2="3.00073" y2="14.6488" gradientUnits="userSpaceOnUse">
<stop stop-color="#C4CBFF"/>
<stop offset="0.5251" stop-color="#E9EDFF"/>
<stop offset="1" stop-color="#C4CBFF"/>
</linearGradient>
<linearGradient id="paint18_linear_984_2616" x1="3.26264" y1="14.6488" x2="4.14027" y2="14.6488" gradientUnits="userSpaceOnUse">
<stop stop-color="#C4CBFF"/>
<stop offset="0.5251" stop-color="#E9EDFF"/>
<stop offset="1" stop-color="#C4CBFF"/>
</linearGradient>
<linearGradient id="paint19_linear_984_2616" x1="4.4011" y1="14.6488" x2="5.27873" y2="14.6488" gradientUnits="userSpaceOnUse">
<stop stop-color="#C4CBFF"/>
<stop offset="0.5251" stop-color="#E9EDFF"/>
<stop offset="1" stop-color="#C4CBFF"/>
</linearGradient>
<linearGradient id="paint20_linear_984_2616" x1="5.54011" y1="14.6488" x2="6.41774" y2="14.6488" gradientUnits="userSpaceOnUse">
<stop stop-color="#C4CBFF"/>
<stop offset="0.5251" stop-color="#E9EDFF"/>
<stop offset="1" stop-color="#C4CBFF"/>
</linearGradient>
<linearGradient id="paint21_linear_984_2616" x1="7.28886" y1="14.6488" x2="8.16648" y2="14.6488" gradientUnits="userSpaceOnUse">
<stop stop-color="#C4CBFF"/>
<stop offset="0.5251" stop-color="#E9EDFF"/>
<stop offset="1" stop-color="#C4CBFF"/>
</linearGradient>
<linearGradient id="paint22_linear_984_2616" x1="8.4278" y1="14.6488" x2="9.30543" y2="14.6488" gradientUnits="userSpaceOnUse">
<stop stop-color="#C4CBFF"/>
<stop offset="0.5251" stop-color="#E9EDFF"/>
<stop offset="1" stop-color="#C4CBFF"/>
</linearGradient>
<linearGradient id="paint23_linear_984_2616" x1="9.56739" y1="14.6488" x2="10.445" y2="14.6488" gradientUnits="userSpaceOnUse">
<stop stop-color="#C4CBFF"/>
<stop offset="0.5251" stop-color="#E9EDFF"/>
<stop offset="1" stop-color="#C4CBFF"/>
</linearGradient>
<linearGradient id="paint24_linear_984_2616" x1="10.7049" y1="14.6488" x2="11.5826" y2="14.6488" gradientUnits="userSpaceOnUse">
<stop stop-color="#C4CBFF"/>
<stop offset="0.5251" stop-color="#E9EDFF"/>
<stop offset="1" stop-color="#C4CBFF"/>
</linearGradient>
<linearGradient id="paint25_linear_984_2616" x1="12.4542" y1="14.6488" x2="13.3319" y2="14.6488" gradientUnits="userSpaceOnUse">
<stop stop-color="#C4CBFF"/>
<stop offset="0.5251" stop-color="#E9EDFF"/>
<stop offset="1" stop-color="#C4CBFF"/>
</linearGradient>
<linearGradient id="paint26_linear_984_2616" x1="13.5924" y1="14.6488" x2="14.47" y2="14.6488" gradientUnits="userSpaceOnUse">
<stop stop-color="#C4CBFF"/>
<stop offset="0.5251" stop-color="#E9EDFF"/>
<stop offset="1" stop-color="#C4CBFF"/>
</linearGradient>
<linearGradient id="paint27_linear_984_2616" x1="14.7311" y1="14.6488" x2="15.6087" y2="14.6488" gradientUnits="userSpaceOnUse">
<stop stop-color="#C4CBFF"/>
<stop offset="0.5251" stop-color="#E9EDFF"/>
<stop offset="1" stop-color="#C4CBFF"/>
</linearGradient>
<linearGradient id="paint28_linear_984_2616" x1="15.8704" y1="14.6488" x2="16.7481" y2="14.6488" gradientUnits="userSpaceOnUse">
<stop stop-color="#C4CBFF"/>
<stop offset="0.5251" stop-color="#E9EDFF"/>
<stop offset="1" stop-color="#C4CBFF"/>
</linearGradient>
<linearGradient id="paint29_linear_984_2616" x1="17.6187" y1="14.6488" x2="18.4963" y2="14.6488" gradientUnits="userSpaceOnUse">
<stop stop-color="#C4CBFF"/>
<stop offset="0.5251" stop-color="#E9EDFF"/>
<stop offset="1" stop-color="#C4CBFF"/>
</linearGradient>
<linearGradient id="paint30_linear_984_2616" x1="18.7574" y1="14.6488" x2="19.635" y2="14.6488" gradientUnits="userSpaceOnUse">
<stop stop-color="#C4CBFF"/>
<stop offset="0.5251" stop-color="#E9EDFF"/>
<stop offset="1" stop-color="#C4CBFF"/>
</linearGradient>
<linearGradient id="paint31_linear_984_2616" x1="19.8964" y1="14.6488" x2="20.7741" y2="14.6488" gradientUnits="userSpaceOnUse">
<stop stop-color="#C4CBFF"/>
<stop offset="0.5251" stop-color="#E9EDFF"/>
<stop offset="1" stop-color="#C4CBFF"/>
</linearGradient>
<linearGradient id="paint32_linear_984_2616" x1="21.0351" y1="14.6488" x2="21.9128" y2="14.6488" gradientUnits="userSpaceOnUse">
<stop stop-color="#C4CBFF"/>
<stop offset="0.5251" stop-color="#E9EDFF"/>
<stop offset="1" stop-color="#C4CBFF"/>
</linearGradient>
<clipPath id="clip0_984_2616">
<rect width="24" height="24" fill="white"/>
</clipPath>
</defs>
</svg>
