<svg width="24" height="24" viewBox="0 0 24 24" fill="none" xmlns="http://www.w3.org/2000/svg">
<path d="M24 5.73931V18.261C24 19.4136 23.0656 20.348 21.913 20.348H2.08697C0.934359 20.348 0 19.4136 0 18.261V5.73931C0 4.58675 0.934359 3.65234 2.08697 3.65234H21.9131C23.0656 3.65234 24 4.58675 24 5.73931Z" fill="#5E6088"/>
<path d="M24 8.34766V18.2607C24 19.4132 23.0656 20.3477 21.913 20.3477H2.08697C0.934359 20.3477 0 19.4132 0 18.2607V8.34766H24Z" fill="#4F5275"/>
<path d="M7.26819 10.4346H3.1663C2.85828 10.4346 2.60858 10.1849 2.60858 9.87691V6.81846C2.60858 6.51045 2.85828 6.26074 3.1663 6.26074H7.26814C7.57616 6.26074 7.82586 6.51045 7.82586 6.81846V9.87682C7.82596 10.1849 7.57621 10.4346 7.26819 10.4346Z" fill="#FED76E"/>
<path d="M7.82596 8.34766V9.87686C7.82596 10.1849 7.57625 10.4346 7.26824 10.4346H3.1663C2.85828 10.4346 2.60858 10.1849 2.60858 9.87686V8.34766H7.82596Z" fill="#FEAF50"/>
<path d="M6.13027 16.1738C6.13027 16.3899 5.95505 16.5651 5.73896 16.5651H2.60851C2.39241 16.5651 2.21719 16.3899 2.21719 16.1738C2.21719 15.9577 2.39241 15.7825 2.60851 15.7825H5.73896C5.95505 15.7825 6.13027 15.9577 6.13027 16.1738ZM10.9563 15.7825H7.82588C7.60979 15.7825 7.43457 15.9577 7.43457 16.1738C7.43457 16.3899 7.60979 16.5651 7.82588 16.5651H10.9563C11.1724 16.5651 11.3476 16.3899 11.3476 16.1738C11.3476 15.9577 11.1724 15.7825 10.9563 15.7825ZM16.1737 15.7825H13.0433C12.8272 15.7825 12.6519 15.9577 12.6519 16.1738C12.6519 16.3899 12.8272 16.5651 13.0433 16.5651H16.1737C16.3898 16.5651 16.565 16.3899 16.565 16.1738C16.565 15.9577 16.3899 15.7825 16.1737 15.7825ZM21.3911 15.7825H18.2607C18.0446 15.7825 17.8694 15.9577 17.8694 16.1738C17.8694 16.3899 18.0446 16.5651 18.2607 16.5651H21.3911C21.6072 16.5651 21.7824 16.3899 21.7824 16.1738C21.7824 15.9577 21.6072 15.7825 21.3911 15.7825Z" fill="white"/>
<path d="M5.47808 9.13044H4.95636C4.52417 9.13044 4.17374 8.78004 4.17374 8.34781C4.17374 7.91562 4.52413 7.56519 4.95636 7.56519H5.47808C5.91027 7.56519 6.2607 7.91558 6.2607 8.34781C6.26066 8.78 5.91027 9.13044 5.47808 9.13044Z" fill="#FEE66B"/>
<path d="M18.7045 8.34777C18.7045 8.56386 18.5293 8.73908 18.3132 8.73908H18.261C18.0449 8.73908 17.8697 8.56386 17.8697 8.34777C17.8697 8.13167 18.0449 7.95645 18.261 7.95645H18.3132C18.5293 7.95645 18.7045 8.13167 18.7045 8.34777ZM19.5528 7.10642C19.3659 6.99814 19.1264 7.06184 19.018 7.24887C18.9097 7.43586 18.9735 7.6753 19.1605 7.78367C19.3619 7.90039 19.4871 8.11653 19.4871 8.34781C19.4871 8.57909 19.362 8.79523 19.1605 8.91195C18.9735 9.02033 18.9098 9.25977 19.018 9.44675C19.0906 9.57195 19.222 9.64198 19.357 9.64198C19.4235 9.64198 19.491 9.62497 19.5528 9.5892C19.995 9.33303 20.2696 8.85734 20.2696 8.34786C20.2696 7.83837 19.995 7.36259 19.5528 7.10642ZM20.5961 6.20206C20.4092 6.09392 20.1698 6.15767 20.0615 6.34475C19.9532 6.53178 20.0171 6.77117 20.2042 6.87941C20.7274 7.18212 21.0524 7.74477 21.0524 8.34772C21.0524 8.95067 20.7274 9.51336 20.2042 9.81612C20.0172 9.92441 19.9532 10.1637 20.0615 10.3508C20.134 10.4762 20.2655 10.5462 20.4006 10.5462C20.4671 10.5462 20.5345 10.5291 20.5962 10.4935C21.3603 10.0512 21.835 9.22911 21.835 8.34772C21.835 7.46633 21.3602 6.64423 20.5961 6.20206Z" fill="white"/>
</svg>
