<svg width="15" height="10" viewBox="0 0 15 10" fill="none" xmlns="http://www.w3.org/2000/svg">
<path d="M0.637512 2.41699H7.76091C7.95741 3.196 8.67556 3.77536 9.52932 3.77536C10.3831 3.77536 11.1012 3.196 11.2977 2.41699H13.7625C14.0041 2.41699 14.2 2.22477 14.2 1.98769C14.2 1.75061 14.0041 1.5584 13.7625 1.5584H11.2977C11.1012 0.779385 10.3831 0.199997 9.52929 0.199997C8.67551 0.199997 7.95735 0.779385 7.76089 1.5584H0.637512C0.395903 1.5584 0.200012 1.75061 0.200012 1.98769C0.200012 2.22477 0.395903 2.41699 0.637512 2.41699ZM9.52932 1.05859C10.0514 1.05859 10.4762 1.47538 10.4762 1.98767C10.4762 2.49998 10.0514 2.91677 9.52932 2.91677C9.00721 2.91677 8.58246 2.49998 8.58246 1.98767C8.58246 1.47538 9.00721 1.05859 9.52932 1.05859ZM0.637512 7.84162H3.10233C3.29882 8.62064 4.01695 9.2 4.87073 9.2C5.72452 9.2 6.44265 8.62064 6.63914 7.84162H13.7625C14.0041 7.84162 14.2 7.64941 14.2 7.41233C14.2 7.17525 14.0041 6.98303 13.7625 6.98303H6.63911C6.44262 6.20402 5.72449 5.62463 4.87071 5.62463C4.01693 5.62463 3.2988 6.20402 3.10231 6.98303H0.637512C0.395903 6.98303 0.200012 7.17525 0.200012 7.41233C0.200012 7.64941 0.395875 7.84162 0.637512 7.84162ZM4.87071 6.48323C5.39281 6.48323 5.81757 6.90002 5.81757 7.41233C5.81757 7.92461 5.39281 8.3414 4.87071 8.3414C4.34861 8.3414 3.92385 7.92461 3.92385 7.41233C3.92385 6.90002 4.34861 6.48323 4.87071 6.48323Z" fill="currentColor" stroke="currentColor" stroke-width="0.4"/>
</svg>
