<svg width="24" height="24" viewBox="0 0 24 24" fill="none" xmlns="http://www.w3.org/2000/svg">
<path d="M15.3488 0H8.65116C2.58642 0 0 2.58753 0 8.65116V15.3488C0 21.4125 2.58642 24 8.65116 24H15.3488C21.4136 24 24 21.4125 24 15.3488V8.65116C24 2.58753 21.4136 0 15.3488 0ZM22.3256 15.3488C22.3256 20.4993 20.4993 22.3256 15.3488 22.3256H8.65116C5.57358 22.3256 3.69042 21.6659 2.66679 20.0428L7.54828 16.7676C7.84026 16.5796 8.1837 16.4876 8.53057 16.5044C8.87743 16.5212 9.21036 16.646 9.48279 16.8614L9.85451 17.1807C10.4507 17.6752 11.2009 17.9458 11.9754 17.9458C12.75 17.9458 13.5002 17.6752 14.0964 17.1807L18.7412 13.1955C19.034 12.9624 19.3973 12.8355 19.7715 12.8355C20.1458 12.8355 20.509 12.9624 20.8019 13.1955L22.3278 14.5049L22.3256 15.3488ZM22.3256 12.298L21.8891 11.9241C21.293 11.4296 20.5427 11.1589 19.7682 11.1589C18.9936 11.1589 18.2434 11.4296 17.6473 11.9241L13.0047 15.907C12.712 16.1395 12.3492 16.2661 11.9754 16.2661C11.6017 16.2661 11.2389 16.1395 10.9462 15.907L10.5745 15.5877C10.0248 15.1325 9.34326 14.866 8.63055 14.8277C7.91783 14.7893 7.21165 14.981 6.61619 15.3745L2.00707 18.4744C1.76439 17.4508 1.65187 16.4006 1.67219 15.3488V8.65116C1.67442 3.50065 3.50065 1.67442 8.65116 1.67442H15.3488C20.4993 1.67442 22.3256 3.50065 22.3256 8.65116V12.298ZM8.65116 4.46512C8.04402 4.46512 7.45051 4.64516 6.94569 4.98247C6.44087 5.31978 6.04741 5.79921 5.81507 6.36013C5.58272 6.92106 5.52193 7.53829 5.64038 8.13377C5.75883 8.72924 6.05119 9.27622 6.48051 9.70554C6.90982 10.1349 7.45681 10.4272 8.05228 10.5457C8.64776 10.6641 9.26499 10.6033 9.82591 10.371C10.3868 10.1386 10.8663 9.74518 11.2036 9.24036C11.5409 8.73553 11.7209 8.14203 11.7209 7.53488C11.7203 6.72091 11.3967 5.94045 10.8212 5.36488C10.2456 4.78932 9.46513 4.46571 8.65116 4.46512ZM8.65116 8.93023C8.37519 8.93023 8.10541 8.8484 7.87595 8.69507C7.64648 8.54175 7.46764 8.32383 7.36203 8.06886C7.25642 7.81389 7.22879 7.53334 7.28263 7.26266C7.33647 6.99199 7.46936 6.74337 7.6645 6.54822C7.85965 6.35308 8.10827 6.22019 8.37894 6.16635C8.64962 6.11251 8.93017 6.14014 9.18514 6.24575C9.44011 6.35136 9.65803 6.53021 9.81135 6.75967C9.96468 6.98913 10.0465 7.25891 10.0465 7.53488C10.0459 7.90477 9.89872 8.25934 9.63717 8.52089C9.37562 8.78244 9.02105 8.92964 8.65116 8.93023Z" fill="white"/>
</svg>
