<svg width="24" height="24" viewBox="0 0 24 24" fill="none" xmlns="http://www.w3.org/2000/svg">
<path d="M22.4438 22.5282H1.55625C0.698438 22.5282 0 21.8345 0 20.972V7.78135C0 6.91885 0.698438 6.2251 1.55625 6.2251H22.4391C23.3016 6.2251 23.9953 6.92354 23.9953 7.78135V20.972C24 21.8345 23.3016 22.5282 22.4438 22.5282Z" fill="url(#paint0_linear_984_2744)"/>
<path d="M24 15.7593V17.6624C22.875 17.4468 21.7781 17.353 20.6906 17.4608C18.7266 17.6577 16.9031 18.5765 14.9484 20.353C14.6344 20.639 14.3156 20.9343 14.0109 21.2202C13.5422 21.6562 13.0734 22.0968 12.5812 22.528H9.54375C10.6688 21.778 11.6766 20.8358 12.7313 19.8515C13.0453 19.5608 13.3641 19.2562 13.6875 18.9655C15.9563 16.9077 18.1219 15.8343 20.5031 15.5952C21.6797 15.478 22.8703 15.5671 24 15.7593ZM12.5203 6.2249C12.3609 11.039 8.39531 14.9015 3.54375 14.9015C2.2875 14.9015 1.0875 14.6437 0 14.1702V12.0749C1.04531 12.6796 2.25469 13.0218 3.54375 13.0218C7.35938 13.0218 10.4812 9.99834 10.6406 6.22021H12.5203V6.2249Z" fill="url(#paint1_linear_984_2744)"/>
<path d="M24 20.2688V20.9719C24 21.8344 23.3016 22.5282 22.4437 22.5282H1.55625C0.698438 22.5282 0 21.8344 0 20.9719V20.2688H24Z" fill="url(#paint2_linear_984_2744)"/>
<path d="M22.2422 22.5282H22.4437C23.3062 22.5282 24 21.8298 24 20.972V7.78135C24 6.91885 23.3016 6.2251 22.4437 6.2251H22.2422V22.5282Z" fill="url(#paint3_linear_984_2744)"/>
<path d="M24 8.47959V7.77646C24 6.91396 23.3016 6.22021 22.4437 6.22021H1.55625C0.698438 6.2249 0 6.91865 0 7.78115V8.48428H24V8.47959Z" fill="url(#paint4_linear_984_2744)"/>
<path d="M1.75781 6.2251H1.55625C0.698438 6.2251 0 6.91885 0 7.78135V20.972C0 21.8345 0.698438 22.5282 1.55625 22.5282H1.75781V6.2251Z" fill="url(#paint5_linear_984_2744)"/>
<path d="M5.02532 14.161H2.72844C2.37688 14.161 2.09094 13.8751 2.09094 13.5235V11.9954C2.09094 11.6438 2.37688 11.3579 2.72844 11.3579H5.02532C5.37688 11.3579 5.66282 11.6438 5.66282 11.9954V13.5235C5.65813 13.8751 5.37688 14.161 5.02532 14.161Z" fill="url(#paint6_linear_984_2744)"/>
<path d="M5.02504 14.1233H2.71879C2.39066 14.1233 2.12347 13.8562 2.12347 13.528V11.9952C2.12347 11.6671 2.39066 11.3999 2.71879 11.3999H5.02504C5.35316 11.3999 5.62035 11.6671 5.62035 11.9952V13.528C5.62035 13.8562 5.35316 14.1233 5.02504 14.1233Z" fill="url(#paint7_linear_984_2744)"/>
<path d="M5.62035 12.8062V12.7124H4.4016V12.2999L4.71566 11.9858H5.62035C5.62035 11.953 5.61566 11.9202 5.61097 11.8921H4.69222C4.67816 11.8921 4.66879 11.8968 4.65941 11.9062L4.33129 12.2343H3.91879V11.3999H3.82504V12.2343H3.41722L3.0891 11.9062C3.07972 11.8968 3.06566 11.8921 3.05629 11.8921H2.13285C2.12816 11.9202 2.12347 11.953 2.12347 11.9858H3.03754L3.34691 12.2952V12.7124H2.12347V12.8062H3.34691V13.2233L3.03754 13.5327H2.12347C2.12347 13.5655 2.12816 13.5983 2.13285 13.6265H3.05629C3.07035 13.6265 3.07972 13.6218 3.0891 13.6124L3.41722 13.2843H3.82504V14.1187H3.91879V13.2843H4.33129L4.65941 13.6124C4.66879 13.6218 4.67816 13.6265 4.69222 13.6265H5.61097C5.61566 13.5983 5.62035 13.5655 5.62035 13.5327H4.71566L4.4016 13.2187V12.8062H5.62035ZM4.30785 13.1952H3.44066V12.328H4.30785V13.1952Z" fill="url(#paint8_linear_984_2744)"/>
<path d="M5.02051 11.3999H5.0252C5.35332 11.3999 5.62051 11.6671 5.62051 11.9952V13.528C5.62051 13.8562 5.35332 14.1233 5.0252 14.1233H5.02051V11.3999Z" fill="url(#paint9_linear_984_2744)"/>
<path d="M5.62017 13.5562C5.6061 13.8702 5.3436 14.1233 5.02485 14.1233H2.7186C2.39985 14.1233 2.13735 13.8702 2.12329 13.5562H5.62017Z" fill="url(#paint10_linear_984_2744)"/>
<path d="M2.72816 11.3999H2.71879C2.39066 11.3999 2.12347 11.6671 2.12347 11.9952V13.528C2.12347 13.8562 2.39066 14.1233 2.71879 14.1233H2.72347V11.3999H2.72816Z" fill="url(#paint11_linear_984_2744)"/>
<path d="M5.62035 11.9671C5.60629 11.653 5.34379 11.3999 5.02504 11.3999H2.71879C2.40004 11.3999 2.13754 11.653 2.12347 11.9671H5.62035Z" fill="url(#paint12_linear_984_2744)"/>
<path d="M21.4875 14.0906C21.4641 14.0906 21.4454 14.0859 21.4266 14.0765C21.3563 14.0437 21.3282 13.9594 21.3657 13.889C21.7266 13.1719 21.7266 12.3515 21.3657 11.6344C21.3329 11.564 21.361 11.4797 21.4266 11.4469C21.4969 11.414 21.5813 11.4422 21.6141 11.5078C22.0172 12.3047 22.0172 13.2187 21.6141 14.0156C21.586 14.0625 21.5391 14.0906 21.4875 14.0906ZM21.0047 13.8234C21.3844 13.1484 21.3844 12.3703 21.0047 11.6953C20.9672 11.6297 20.8829 11.6015 20.8125 11.6437C20.7469 11.6812 20.7188 11.7656 20.761 11.8359C21.0938 12.4265 21.0938 13.1015 20.761 13.6875C20.7235 13.7531 20.7469 13.8422 20.8125 13.8797C20.836 13.8937 20.8594 13.8984 20.8829 13.8984C20.9297 13.8984 20.9766 13.8703 21.0047 13.8234ZM20.4047 13.6359C20.775 13.0969 20.775 12.4265 20.4047 11.8828C20.3625 11.8172 20.2735 11.8031 20.2079 11.8453C20.1422 11.8875 20.1282 11.9765 20.1704 12.0422C20.4704 12.4828 20.4704 13.0359 20.1704 13.4765C20.1282 13.5422 20.1422 13.6265 20.2079 13.6734C20.2313 13.6922 20.2594 13.6969 20.2875 13.6969C20.3344 13.6969 20.3766 13.6781 20.4047 13.6359ZM19.7719 13.4531C19.9782 13.2656 20.0907 13.0172 20.0907 12.7594C20.0907 12.5015 19.9782 12.2531 19.7719 12.0656C19.7157 12.014 19.6266 12.014 19.575 12.075C19.5235 12.1312 19.5235 12.2203 19.5844 12.2719C19.7297 12.4078 19.8094 12.5812 19.8094 12.7594C19.8094 12.9375 19.7297 13.1109 19.5844 13.2469C19.5282 13.2984 19.5235 13.3875 19.575 13.4437C19.6032 13.4719 19.6407 13.4906 19.6782 13.4906C19.711 13.4906 19.7438 13.4765 19.7719 13.4531Z" fill="url(#paint13_linear_984_2744)"/>
<path d="M11.8594 20.1655H2.26404C2.18435 20.1655 2.12341 20.1046 2.12341 20.0249C2.12341 19.9452 2.18435 19.8843 2.26404 19.8843H11.8594C11.939 19.8843 12 19.9452 12 20.0249C12 20.1046 11.939 20.1655 11.8594 20.1655Z" fill="url(#paint14_linear_984_2744)"/>
<path d="M21.7732 20.1655H19.9639C19.8842 20.1655 19.8232 20.1046 19.8232 20.0249C19.8232 19.9452 19.8842 19.8843 19.9639 19.8843H21.7732C21.8529 19.8843 21.9139 19.9452 21.9139 20.0249C21.9139 20.1046 21.8482 20.1655 21.7732 20.1655ZM19.1951 20.0249C19.1951 19.9452 19.1342 19.8843 19.0545 19.8843H17.2451C17.1654 19.8843 17.1045 19.9452 17.1045 20.0249C17.1045 20.1046 17.1654 20.1655 17.2451 20.1655H19.0545C19.1342 20.1655 19.1951 20.1046 19.1951 20.0249Z" fill="url(#paint15_linear_984_2744)"/>
<path d="M2.26404 9.41709C2.18435 9.41709 2.12341 9.35615 2.12341 9.27646V8.72803C2.12341 8.64834 2.18435 8.5874 2.26404 8.5874C2.34373 8.5874 2.40466 8.64834 2.40466 8.72803V9.27646C2.40466 9.35615 2.34373 9.41709 2.26404 9.41709ZM3.16873 9.27646V8.72803C3.16873 8.64834 3.10779 8.5874 3.0281 8.5874C2.94841 8.5874 2.88748 8.64834 2.88748 8.72803V9.27646C2.88748 9.35615 2.94841 9.41709 3.0281 9.41709C3.10779 9.41709 3.16873 9.35615 3.16873 9.27646ZM3.93748 9.27646V8.72803C3.93748 8.64834 3.87654 8.5874 3.79685 8.5874C3.71716 8.5874 3.65623 8.64834 3.65623 8.72803V9.27646C3.65623 9.35615 3.71716 9.41709 3.79685 9.41709C3.87185 9.41709 3.93748 9.35615 3.93748 9.27646ZM4.70154 9.27646V8.72803C4.70154 8.64834 4.6406 8.5874 4.56091 8.5874C4.48123 8.5874 4.42029 8.64834 4.42029 8.72803V9.27646C4.42029 9.35615 4.48123 9.41709 4.56091 9.41709C4.6406 9.41709 4.70154 9.35615 4.70154 9.27646Z" fill="url(#paint16_linear_984_2744)"/>
<path d="M2.57341 17.7797H2.54998C2.3156 17.7797 2.12341 17.5875 2.12341 17.3532V16.6875C2.12341 16.4532 2.3156 16.261 2.54998 16.261H2.57341C2.80779 16.261 2.99998 16.4532 2.99998 16.6875V17.3532C2.99998 17.5922 2.81248 17.7797 2.57341 17.7797ZM2.54998 16.5469C2.47029 16.5469 2.40466 16.6125 2.40466 16.6922V17.3579C2.40466 17.4375 2.47029 17.5032 2.54998 17.5032H2.57341C2.6531 17.5032 2.71873 17.4375 2.71873 17.3579V16.6922C2.71873 16.6125 2.6531 16.5469 2.57341 16.5469H2.54998Z" fill="url(#paint17_linear_984_2744)"/>
<path d="M3.71263 17.7797H3.6892C3.45482 17.7797 3.26263 17.5875 3.26263 17.3532V16.6875C3.26263 16.4532 3.45482 16.261 3.6892 16.261H3.71263C3.94701 16.261 4.1392 16.4532 4.1392 16.6875V17.3532C4.1392 17.5922 3.94701 17.7797 3.71263 17.7797ZM3.6892 16.5469C3.60951 16.5469 3.54388 16.6125 3.54388 16.6922V17.3579C3.54388 17.4375 3.60951 17.5032 3.6892 17.5032H3.71263C3.79232 17.5032 3.85795 17.4375 3.85795 17.3579V16.6922C3.85795 16.6125 3.79232 16.5469 3.71263 16.5469H3.6892Z" fill="url(#paint18_linear_984_2744)"/>
<path d="M4.85118 17.7797H4.82775C4.59337 17.7797 4.40118 17.5875 4.40118 17.3532V16.6875C4.40118 16.4532 4.59337 16.261 4.82775 16.261H4.85118C5.08556 16.261 5.27775 16.4532 5.27775 16.6875V17.3532C5.27775 17.5922 5.08556 17.7797 4.85118 17.7797ZM4.82775 16.5469C4.74806 16.5469 4.68243 16.6125 4.68243 16.6922V17.3579C4.68243 17.4375 4.74806 17.5032 4.82775 17.5032H4.85118C4.93087 17.5032 4.9965 17.4375 4.9965 17.3579V16.6922C4.9965 16.6125 4.93087 16.5469 4.85118 16.5469H4.82775Z" fill="url(#paint19_linear_984_2744)"/>
<path d="M5.99059 17.7797H5.96715C5.73278 17.7797 5.54059 17.5875 5.54059 17.3532V16.6875C5.54059 16.4532 5.73278 16.261 5.96715 16.261H5.99059C6.22496 16.261 6.41715 16.4532 6.41715 16.6875V17.3532C6.41715 17.5922 6.22496 17.7797 5.99059 17.7797ZM5.96715 16.5469C5.88746 16.5469 5.82184 16.6125 5.82184 16.6922V17.3579C5.82184 17.4375 5.88746 17.5032 5.96715 17.5032H5.99059C6.07028 17.5032 6.1359 17.4375 6.1359 17.3579V16.6922C6.1359 16.6125 6.07028 16.5469 5.99059 16.5469H5.96715Z" fill="url(#paint20_linear_984_2744)"/>
<path d="M7.73894 17.7797H7.7155C7.48113 17.7797 7.28894 17.5875 7.28894 17.3532V16.6875C7.28894 16.4532 7.48113 16.261 7.7155 16.261H7.73894C7.97332 16.261 8.1655 16.4532 8.1655 16.6875V17.3532C8.1655 17.5922 7.97332 17.7797 7.73894 17.7797ZM7.7155 16.5469C7.63582 16.5469 7.57019 16.6125 7.57019 16.6922V17.3579C7.57019 17.4375 7.63582 17.5032 7.7155 17.5032H7.73894C7.81863 17.5032 7.88425 17.4375 7.88425 17.3579V16.6922C7.88425 16.6125 7.81863 16.5469 7.73894 16.5469H7.7155Z" fill="url(#paint21_linear_984_2744)"/>
<path d="M8.87792 17.7797H8.85448C8.6201 17.7797 8.42792 17.5875 8.42792 17.3532V16.6875C8.42792 16.4532 8.6201 16.261 8.85448 16.261H8.87792C9.11229 16.261 9.30448 16.4532 9.30448 16.6875V17.3532C9.30448 17.5922 9.11229 17.7797 8.87792 17.7797ZM8.85448 16.5469C8.77479 16.5469 8.70917 16.6125 8.70917 16.6922V17.3579C8.70917 17.4375 8.77479 17.5032 8.85448 17.5032H8.87792C8.9576 17.5032 9.02323 17.4375 9.02323 17.3579V16.6922C9.02323 16.6125 8.9576 16.5469 8.87792 16.5469H8.85448Z" fill="url(#paint22_linear_984_2744)"/>
<path d="M10.0173 17.7797H9.99388C9.75951 17.7797 9.56732 17.5875 9.56732 17.3532V16.6875C9.56732 16.4532 9.75951 16.261 9.99388 16.261H10.0173C10.2517 16.261 10.4439 16.4532 10.4439 16.6875V17.3532C10.4439 17.5922 10.2517 17.7797 10.0173 17.7797ZM9.99388 16.5469C9.9142 16.5469 9.84857 16.6125 9.84857 16.6922V17.3579C9.84857 17.4375 9.9142 17.5032 9.99388 17.5032H10.0173C10.097 17.5032 10.1626 17.4375 10.1626 17.3579V16.6922C10.1626 16.6125 10.097 16.5469 10.0173 16.5469H9.99388Z" fill="url(#paint23_linear_984_2744)"/>
<path d="M11.1559 17.7797H11.1324C10.8981 17.7797 10.7059 17.5875 10.7059 17.3532V16.6875C10.7059 16.4532 10.8981 16.261 11.1324 16.261H11.1559C11.3902 16.261 11.5824 16.4532 11.5824 16.6875V17.3532C11.5824 17.5922 11.3902 17.7797 11.1559 17.7797ZM11.1324 16.5469C11.0527 16.5469 10.9871 16.6125 10.9871 16.6922V17.3579C10.9871 17.4375 11.0527 17.5032 11.1324 17.5032H11.1559C11.2356 17.5032 11.3012 17.4375 11.3012 17.3579V16.6922C11.3012 16.6125 11.2356 16.5469 11.1559 16.5469H11.1324Z" fill="url(#paint24_linear_984_2744)"/>
<path d="M12.9046 17.7797H12.8812C12.6468 17.7797 12.4547 17.5875 12.4547 17.3532V16.6875C12.4547 16.4532 12.6468 16.261 12.8812 16.261H12.9046C13.139 16.261 13.3312 16.4532 13.3312 16.6875V17.3532C13.3312 17.5922 13.139 17.7797 12.9046 17.7797ZM12.8812 16.5469C12.8015 16.5469 12.7359 16.6125 12.7359 16.6922V17.3579C12.7359 17.4375 12.8015 17.5032 12.8812 17.5032H12.9046C12.9843 17.5032 13.05 17.4375 13.05 17.3579V16.6922C13.05 16.6125 12.9843 16.5469 12.9046 16.5469H12.8812Z" fill="url(#paint25_linear_984_2744)"/>
<path d="M14.0438 17.7797H14.0204C13.786 17.7797 13.5938 17.5875 13.5938 17.3532V16.6875C13.5938 16.4532 13.786 16.261 14.0204 16.261H14.0438C14.2782 16.261 14.4704 16.4532 14.4704 16.6875V17.3532C14.4704 17.5922 14.2782 17.7797 14.0438 17.7797ZM14.0204 16.5469C13.9407 16.5469 13.8751 16.6125 13.8751 16.6922V17.3579C13.8751 17.4375 13.9407 17.5032 14.0204 17.5032H14.0438C14.1235 17.5032 14.1891 17.4375 14.1891 17.3579V16.6922C14.1891 16.6125 14.1235 16.5469 14.0438 16.5469H14.0204Z" fill="url(#paint26_linear_984_2744)"/>
<path d="M15.1828 17.7797H15.1594C14.925 17.7797 14.7328 17.5875 14.7328 17.3532V16.6875C14.7328 16.4532 14.925 16.261 15.1594 16.261H15.1828C15.4172 16.261 15.6094 16.4532 15.6094 16.6875V17.3532C15.6094 17.5922 15.4172 17.7797 15.1828 17.7797ZM15.1594 16.5469C15.0797 16.5469 15.014 16.6125 15.014 16.6922V17.3579C15.014 17.4375 15.0797 17.5032 15.1594 17.5032H15.1828C15.2625 17.5032 15.3281 17.4375 15.3281 17.3579V16.6922C15.3281 16.6125 15.2625 16.5469 15.1828 16.5469H15.1594Z" fill="url(#paint27_linear_984_2744)"/>
<path d="M16.3222 17.7797H16.2988C16.0644 17.7797 15.8722 17.5875 15.8722 17.3532V16.6875C15.8722 16.4532 16.0644 16.261 16.2988 16.261H16.3222C16.5566 16.261 16.7488 16.4532 16.7488 16.6875V17.3532C16.7488 17.5922 16.5566 17.7797 16.3222 17.7797ZM16.2988 16.5469C16.2191 16.5469 16.1534 16.6125 16.1534 16.6922V17.3579C16.1534 17.4375 16.2191 17.5032 16.2988 17.5032H16.3222C16.4019 17.5032 16.4675 17.4375 16.4675 17.3579V16.6922C16.4675 16.6125 16.4019 16.5469 16.3222 16.5469H16.2988Z" fill="url(#paint28_linear_984_2744)"/>
<path d="M18.0699 17.7797H18.0465C17.8121 17.7797 17.6199 17.5875 17.6199 17.3532V16.6875C17.6199 16.4532 17.8121 16.261 18.0465 16.261H18.0699C18.3043 16.261 18.4965 16.4532 18.4965 16.6875V17.3532C18.4965 17.5922 18.3043 17.7797 18.0699 17.7797ZM18.0465 16.5469C17.9668 16.5469 17.9012 16.6125 17.9012 16.6922V17.3579C17.9012 17.4375 17.9668 17.5032 18.0465 17.5032H18.0699C18.1496 17.5032 18.2152 17.4375 18.2152 17.3579V16.6922C18.2152 16.6125 18.1496 16.5469 18.0699 16.5469H18.0465Z" fill="url(#paint29_linear_984_2744)"/>
<path d="M19.2093 17.7797H19.1858C18.9515 17.7797 18.7593 17.5875 18.7593 17.3532V16.6875C18.7593 16.4532 18.9515 16.261 19.1858 16.261H19.2093C19.4437 16.261 19.6358 16.4532 19.6358 16.6875V17.3532C19.6358 17.5922 19.4437 17.7797 19.2093 17.7797ZM19.1858 16.5469C19.1062 16.5469 19.0405 16.6125 19.0405 16.6922V17.3579C19.0405 17.4375 19.1062 17.5032 19.1858 17.5032H19.2093C19.289 17.5032 19.3546 17.4375 19.3546 17.3579V16.6922C19.3546 16.6125 19.289 16.5469 19.2093 16.5469H19.1858Z" fill="url(#paint30_linear_984_2744)"/>
<path d="M20.3483 17.7797H20.3248C20.0904 17.7797 19.8983 17.5875 19.8983 17.3532V16.6875C19.8983 16.4532 20.0904 16.261 20.3248 16.261H20.3483C20.5826 16.261 20.7748 16.4532 20.7748 16.6875V17.3532C20.7748 17.5922 20.5826 17.7797 20.3483 17.7797ZM20.3248 16.5469C20.2451 16.5469 20.1795 16.6125 20.1795 16.6922V17.3579C20.1795 17.4375 20.2451 17.5032 20.3248 17.5032H20.3483C20.4279 17.5032 20.4936 17.4375 20.4936 17.3579V16.6922C20.4936 16.6125 20.4279 16.5469 20.3483 16.5469H20.3248Z" fill="url(#paint31_linear_984_2744)"/>
<path d="M21.4872 17.7797H21.4638C21.2294 17.7797 21.0372 17.5875 21.0372 17.3532V16.6875C21.0372 16.4532 21.2294 16.261 21.4638 16.261H21.4872C21.7216 16.261 21.9138 16.4532 21.9138 16.6875V17.3532C21.9138 17.5922 21.7216 17.7797 21.4872 17.7797ZM21.4591 16.5469C21.3794 16.5469 21.3138 16.6125 21.3138 16.6922V17.3579C21.3138 17.4375 21.3794 17.5032 21.4591 17.5032H21.4825C21.5622 17.5032 21.6279 17.4375 21.6279 17.3579V16.6922C21.6279 16.6125 21.5622 16.5469 21.4825 16.5469H21.4591Z" fill="url(#paint32_linear_984_2744)"/>
<path d="M10.7061 7.55151H13.2936V22.5281H10.7061V7.55151Z" fill="url(#paint33_linear_984_2744)"/>
<path d="M10.7061 21.1265H13.2936V22.5327H10.7061V21.1265Z" fill="url(#paint34_linear_984_2744)"/>
<path d="M16.3454 6.2251H7.65479C7.4251 6.45479 7.24229 6.71728 7.13448 7.03604C6.94229 7.59854 6.86729 8.24072 7.06417 8.8126C7.1626 9.08916 7.32667 9.34697 7.55635 9.50635C7.62667 9.60478 17.5782 19.561 20.5689 22.5282H22.4392C23.3017 22.5282 23.9954 21.8298 23.9954 20.972V13.8798L16.3454 6.2251Z" fill="url(#paint35_linear_984_2744)"/>
<path d="M12.4223 6.79682C12.2488 7.38276 11.6348 7.82339 11.1473 8.14682C10.6129 8.50307 10.027 8.77026 9.46445 9.07495C9.04258 9.30464 8.61133 9.6562 8.11445 9.67026C7.58945 9.68432 7.22852 9.27651 7.06914 8.81245C6.87227 8.24057 6.94727 7.59839 7.13945 7.03589C7.32227 6.5062 7.71133 6.11714 8.16602 5.80776C9.26758 5.05307 10.5707 4.88432 11.8879 4.96401C12.2395 4.98745 12.5957 5.02495 12.9473 5.07182C12.9426 5.06714 12.427 6.79682 12.4223 6.79682Z" fill="url(#paint36_linear_984_2744)"/>
<path d="M11.1893 5.49838C11.1893 4.889 10.7299 4.289 10.3549 3.839C9.94713 3.34682 9.45963 2.92494 9.00963 2.47025C8.67213 2.13275 8.35807 1.66869 7.88463 1.514C7.02682 1.23275 6.79244 2.42338 6.69401 3.014C6.62369 3.44525 6.59557 3.89525 6.66588 4.33119C6.80651 5.21713 7.39244 5.96713 8.17994 6.38901C9.10338 6.88588 10.1628 7.14369 11.194 7.30307C11.1893 7.30775 11.1893 5.50307 11.1893 5.49838Z" fill="url(#paint37_linear_984_2744)"/>
<path d="M11.03 5.99531C11.03 5.99531 10.0972 3.51562 7.95035 3.51562C7.95504 3.51562 8.14722 5.11406 11.03 5.99531Z" fill="url(#paint38_linear_984_2744)"/>
<path d="M11.0295 5.99535C11.0295 5.99535 9.21546 4.0641 7.23734 4.8891C7.23734 4.8891 8.02952 6.29067 11.0295 5.99535Z" fill="url(#paint39_linear_984_2744)"/>
<path d="M11.5737 6.79682C11.7471 7.38276 12.3612 7.82339 12.8487 8.14682C13.3831 8.50307 13.969 8.77026 14.5315 9.07495C14.9534 9.30464 15.3846 9.6562 15.8815 9.67026C16.4065 9.68432 16.7674 9.27651 16.9268 8.81245C17.1237 8.24057 17.0487 7.59839 16.8565 7.03589C16.6737 6.5062 16.2846 6.11714 15.8299 5.80776C14.7284 5.05307 13.4252 4.88432 12.1081 4.96401C11.7565 4.98745 11.4002 5.02495 11.0487 5.07182C11.0581 5.06714 11.5737 6.79682 11.5737 6.79682Z" fill="url(#paint40_linear_984_2744)"/>
<path d="M12.8065 5.49838C12.8065 4.889 13.2659 4.289 13.6409 3.839C14.0534 3.34682 14.5362 2.92025 14.9909 2.47025C15.3284 2.13275 15.6424 1.66869 16.1159 1.514C16.9737 1.23275 17.2081 2.42338 17.3065 3.014C17.3768 3.44525 17.4049 3.89525 17.3346 4.33119C17.194 5.21713 16.608 5.96713 15.8205 6.38901C14.8971 6.88588 13.8377 7.14369 12.8065 7.30307C12.8065 7.30775 12.8065 5.50307 12.8065 5.49838Z" fill="url(#paint41_linear_984_2744)"/>
<path d="M12.0002 8.21709C12.9659 8.21709 13.7487 7.43429 13.7487 6.46865C13.7487 5.50302 12.9659 4.72021 12.0002 4.72021C11.0346 4.72021 10.2518 5.50302 10.2518 6.46865C10.2518 7.43429 11.0346 8.21709 12.0002 8.21709Z" fill="url(#paint42_linear_984_2744)"/>
<path d="M12.0004 7.72964C12.6968 7.72964 13.2613 7.1651 13.2613 6.4687C13.2613 5.7723 12.6968 5.20776 12.0004 5.20776C11.304 5.20776 10.7395 5.7723 10.7395 6.4687C10.7395 7.1651 11.304 7.72964 12.0004 7.72964Z" fill="url(#paint43_linear_984_2744)"/>
<path d="M12.966 5.99531C12.966 5.99531 13.8988 3.51562 16.0457 3.51562C16.0457 3.51562 15.8535 5.11406 12.966 5.99531Z" fill="url(#paint44_linear_984_2744)"/>
<path d="M12.9661 5.99535C12.9661 5.99535 14.7802 4.0641 16.7583 4.8891C16.763 4.8891 15.9708 6.29067 12.9661 5.99535Z" fill="url(#paint45_linear_984_2744)"/>
<defs>
<linearGradient id="paint0_linear_984_2744" x1="-0.0869999" y1="6.72474" x2="23.6576" y2="21.7566" gradientUnits="userSpaceOnUse">
<stop stop-color="#7B7DA1"/>
<stop offset="0.3104" stop-color="#6D6F93"/>
<stop offset="0.8987" stop-color="#494C6D"/>
<stop offset="1" stop-color="#424566"/>
</linearGradient>
<linearGradient id="paint1_linear_984_2744" x1="0.0698907" y1="7.38276" x2="23.0843" y2="22.0675" gradientUnits="userSpaceOnUse">
<stop stop-color="#8587AE"/>
<stop offset="0.3104" stop-color="#7779A0"/>
<stop offset="0.8987" stop-color="#51557A"/>
<stop offset="1" stop-color="#4A4E73"/>
</linearGradient>
<linearGradient id="paint2_linear_984_2744" x1="11.9999" y1="22.6407" x2="11.9999" y2="21.0927" gradientUnits="userSpaceOnUse">
<stop stop-color="#32365C"/>
<stop offset="1" stop-color="#32365C" stop-opacity="0"/>
</linearGradient>
<linearGradient id="paint3_linear_984_2744" x1="24.0219" y1="14.3765" x2="22.5296" y2="14.3765" gradientUnits="userSpaceOnUse">
<stop stop-color="#32365C"/>
<stop offset="1" stop-color="#32365C" stop-opacity="0"/>
</linearGradient>
<linearGradient id="paint4_linear_984_2744" x1="11.9999" y1="6.11203" x2="11.9999" y2="7.66012" gradientUnits="userSpaceOnUse">
<stop stop-color="#A1A4C7"/>
<stop offset="1" stop-color="#A1A4C7" stop-opacity="0"/>
</linearGradient>
<linearGradient id="paint5_linear_984_2744" x1="-0.022125" y1="14.3765" x2="1.28508" y2="14.3765" gradientUnits="userSpaceOnUse">
<stop stop-color="#A1A4C7"/>
<stop offset="1" stop-color="#A1A4C7" stop-opacity="0"/>
</linearGradient>
<linearGradient id="paint6_linear_984_2744" x1="1.00044" y1="9.88758" x2="6.05877" y2="14.9459" gradientUnits="userSpaceOnUse">
<stop stop-color="#7B7DA1"/>
<stop offset="0.4958" stop-color="#616386"/>
<stop offset="1" stop-color="#424566"/>
</linearGradient>
<linearGradient id="paint7_linear_984_2744" x1="2.31632" y1="11.5738" x2="5.43594" y2="13.9514" gradientUnits="userSpaceOnUse">
<stop stop-color="#FFED81"/>
<stop offset="0.2348" stop-color="#FFD968"/>
<stop offset="0.7302" stop-color="#FFA629"/>
<stop offset="1" stop-color="#FF8804"/>
</linearGradient>
<linearGradient id="paint8_linear_984_2744" x1="2.32429" y1="11.6292" x2="5.44954" y2="13.9117" gradientUnits="userSpaceOnUse">
<stop stop-color="#EFA33D"/>
<stop offset="1" stop-color="#A05223"/>
</linearGradient>
<linearGradient id="paint9_linear_984_2744" x1="5.62234" y1="12.7604" x2="5.2232" y2="12.7604" gradientUnits="userSpaceOnUse">
<stop stop-color="#FF8804"/>
<stop offset="1" stop-color="#FF8804" stop-opacity="0"/>
</linearGradient>
<linearGradient id="paint10_linear_984_2744" x1="3.87295" y1="14.1174" x2="3.87295" y2="13.6859" gradientUnits="userSpaceOnUse">
<stop stop-color="#FF8804"/>
<stop offset="1" stop-color="#FF8804" stop-opacity="0"/>
</linearGradient>
<linearGradient id="paint11_linear_984_2744" x1="2.12399" y1="12.7604" x2="2.46472" y2="12.7604" gradientUnits="userSpaceOnUse">
<stop stop-color="#FFF0A9"/>
<stop offset="1" stop-color="#FFF0A9" stop-opacity="0"/>
</linearGradient>
<linearGradient id="paint12_linear_984_2744" x1="3.87313" y1="11.4033" x2="3.87313" y2="11.8349" gradientUnits="userSpaceOnUse">
<stop stop-color="#FFF0A9"/>
<stop offset="1" stop-color="#FFF0A9" stop-opacity="0"/>
</linearGradient>
<linearGradient id="paint13_linear_984_2744" x1="19.8788" y1="11.757" x2="21.8896" y2="13.7678" gradientUnits="userSpaceOnUse">
<stop stop-color="#E9EDFF"/>
<stop offset="1" stop-color="#C4CBFF"/>
</linearGradient>
<linearGradient id="paint14_linear_984_2744" x1="7.06188" y1="19.8638" x2="7.06188" y2="20.1571" gradientUnits="userSpaceOnUse">
<stop stop-color="#C4CBFF"/>
<stop offset="0.5251" stop-color="#E9EDFF"/>
<stop offset="1" stop-color="#C4CBFF"/>
</linearGradient>
<linearGradient id="paint15_linear_984_2744" x1="19.5092" y1="19.8578" x2="19.5092" y2="20.1739" gradientUnits="userSpaceOnUse">
<stop stop-color="#C4CBFF"/>
<stop offset="0.5251" stop-color="#E9EDFF"/>
<stop offset="1" stop-color="#C4CBFF"/>
</linearGradient>
<linearGradient id="paint16_linear_984_2744" x1="2.04963" y1="8.5897" x2="4.73646" y2="9.40354" gradientUnits="userSpaceOnUse">
<stop stop-color="#E9EDFF"/>
<stop offset="1" stop-color="#C4CBFF"/>
</linearGradient>
<linearGradient id="paint17_linear_984_2744" x1="2.12379" y1="17.0231" x2="3.00143" y2="17.0231" gradientUnits="userSpaceOnUse">
<stop stop-color="#C4CBFF"/>
<stop offset="0.5251" stop-color="#E9EDFF"/>
<stop offset="1" stop-color="#C4CBFF"/>
</linearGradient>
<linearGradient id="paint18_linear_984_2744" x1="3.26277" y1="17.0231" x2="4.14042" y2="17.0231" gradientUnits="userSpaceOnUse">
<stop stop-color="#C4CBFF"/>
<stop offset="0.5251" stop-color="#E9EDFF"/>
<stop offset="1" stop-color="#C4CBFF"/>
</linearGradient>
<linearGradient id="paint19_linear_984_2744" x1="4.40104" y1="17.0231" x2="5.27868" y2="17.0231" gradientUnits="userSpaceOnUse">
<stop stop-color="#C4CBFF"/>
<stop offset="0.5251" stop-color="#E9EDFF"/>
<stop offset="1" stop-color="#C4CBFF"/>
</linearGradient>
<linearGradient id="paint20_linear_984_2744" x1="5.54021" y1="17.0231" x2="6.41781" y2="17.0231" gradientUnits="userSpaceOnUse">
<stop stop-color="#C4CBFF"/>
<stop offset="0.5251" stop-color="#E9EDFF"/>
<stop offset="1" stop-color="#C4CBFF"/>
</linearGradient>
<linearGradient id="paint21_linear_984_2744" x1="7.28875" y1="17.0231" x2="8.16639" y2="17.0231" gradientUnits="userSpaceOnUse">
<stop stop-color="#C4CBFF"/>
<stop offset="0.5251" stop-color="#E9EDFF"/>
<stop offset="1" stop-color="#C4CBFF"/>
</linearGradient>
<linearGradient id="paint22_linear_984_2744" x1="8.42745" y1="17.0231" x2="9.30509" y2="17.0231" gradientUnits="userSpaceOnUse">
<stop stop-color="#C4CBFF"/>
<stop offset="0.5251" stop-color="#E9EDFF"/>
<stop offset="1" stop-color="#C4CBFF"/>
</linearGradient>
<linearGradient id="paint23_linear_984_2744" x1="9.56662" y1="17.0231" x2="10.4443" y2="17.0231" gradientUnits="userSpaceOnUse">
<stop stop-color="#C4CBFF"/>
<stop offset="0.5251" stop-color="#E9EDFF"/>
<stop offset="1" stop-color="#C4CBFF"/>
</linearGradient>
<linearGradient id="paint24_linear_984_2744" x1="10.7049" y1="17.0231" x2="11.5825" y2="17.0231" gradientUnits="userSpaceOnUse">
<stop stop-color="#C4CBFF"/>
<stop offset="0.5251" stop-color="#E9EDFF"/>
<stop offset="1" stop-color="#C4CBFF"/>
</linearGradient>
<linearGradient id="paint25_linear_984_2744" x1="12.4539" y1="17.0231" x2="13.3315" y2="17.0231" gradientUnits="userSpaceOnUse">
<stop stop-color="#C4CBFF"/>
<stop offset="0.5251" stop-color="#E9EDFF"/>
<stop offset="1" stop-color="#C4CBFF"/>
</linearGradient>
<linearGradient id="paint26_linear_984_2744" x1="13.5928" y1="17.0231" x2="14.4704" y2="17.0231" gradientUnits="userSpaceOnUse">
<stop stop-color="#C4CBFF"/>
<stop offset="0.5251" stop-color="#E9EDFF"/>
<stop offset="1" stop-color="#C4CBFF"/>
</linearGradient>
<linearGradient id="paint27_linear_984_2744" x1="14.7315" y1="17.0231" x2="15.6091" y2="17.0231" gradientUnits="userSpaceOnUse">
<stop stop-color="#C4CBFF"/>
<stop offset="0.5251" stop-color="#E9EDFF"/>
<stop offset="1" stop-color="#C4CBFF"/>
</linearGradient>
<linearGradient id="paint28_linear_984_2744" x1="15.8706" y1="17.0231" x2="16.7483" y2="17.0231" gradientUnits="userSpaceOnUse">
<stop stop-color="#C4CBFF"/>
<stop offset="0.5251" stop-color="#E9EDFF"/>
<stop offset="1" stop-color="#C4CBFF"/>
</linearGradient>
<linearGradient id="paint29_linear_984_2744" x1="17.6186" y1="17.0231" x2="18.4962" y2="17.0231" gradientUnits="userSpaceOnUse">
<stop stop-color="#C4CBFF"/>
<stop offset="0.5251" stop-color="#E9EDFF"/>
<stop offset="1" stop-color="#C4CBFF"/>
</linearGradient>
<linearGradient id="paint30_linear_984_2744" x1="18.7577" y1="17.0231" x2="19.6353" y2="17.0231" gradientUnits="userSpaceOnUse">
<stop stop-color="#C4CBFF"/>
<stop offset="0.5251" stop-color="#E9EDFF"/>
<stop offset="1" stop-color="#C4CBFF"/>
</linearGradient>
<linearGradient id="paint31_linear_984_2744" x1="19.8964" y1="17.0231" x2="20.774" y2="17.0231" gradientUnits="userSpaceOnUse">
<stop stop-color="#C4CBFF"/>
<stop offset="0.5251" stop-color="#E9EDFF"/>
<stop offset="1" stop-color="#C4CBFF"/>
</linearGradient>
<linearGradient id="paint32_linear_984_2744" x1="21.0351" y1="17.0231" x2="21.9127" y2="17.0231" gradientUnits="userSpaceOnUse">
<stop stop-color="#C4CBFF"/>
<stop offset="0.5251" stop-color="#E9EDFF"/>
<stop offset="1" stop-color="#C4CBFF"/>
</linearGradient>
<linearGradient id="paint33_linear_984_2744" x1="12.0014" y1="7.28015" x2="12.0014" y2="22.7055" gradientUnits="userSpaceOnUse">
<stop stop-color="#FF7044"/>
<stop offset="0.2064" stop-color="#FE6A40"/>
<stop offset="0.4848" stop-color="#FD5935"/>
<stop offset="0.8029" stop-color="#FA3D22"/>
<stop offset="0.9959" stop-color="#F82814"/>
</linearGradient>
<linearGradient id="paint34_linear_984_2744" x1="12.0014" y1="22.6343" x2="12.0014" y2="21.1992" gradientUnits="userSpaceOnUse">
<stop offset="1.7215e-06" stop-color="#F27F00"/>
<stop offset="1" stop-color="#F27F00" stop-opacity="0"/>
</linearGradient>
<linearGradient id="paint35_linear_984_2744" x1="8.82601" y1="4.74985" x2="17.2915" y2="13.2153" gradientUnits="userSpaceOnUse">
<stop stop-color="#32365C"/>
<stop offset="1" stop-color="#32365C" stop-opacity="0"/>
</linearGradient>
<linearGradient id="paint36_linear_984_2744" x1="9.94628" y1="5.57142" x2="9.94628" y2="9.59845" gradientUnits="userSpaceOnUse">
<stop stop-color="#FF7044"/>
<stop offset="0.2064" stop-color="#FE6A40"/>
<stop offset="0.4848" stop-color="#FD5935"/>
<stop offset="0.8029" stop-color="#FA3D22"/>
<stop offset="0.9959" stop-color="#F82814"/>
</linearGradient>
<linearGradient id="paint37_linear_984_2744" x1="8.90772" y1="1.54025" x2="8.90772" y2="7.04849" gradientUnits="userSpaceOnUse">
<stop stop-color="#FF7044"/>
<stop offset="0.2064" stop-color="#FE6A40"/>
<stop offset="0.4848" stop-color="#FD5935"/>
<stop offset="0.8029" stop-color="#FA3D22"/>
<stop offset="0.9959" stop-color="#F82814"/>
</linearGradient>
<linearGradient id="paint38_linear_984_2744" x1="9.98931" y1="4.06826" x2="9.57129" y2="4.64507" gradientUnits="userSpaceOnUse">
<stop stop-color="#EF0B00"/>
<stop offset="0.8157" stop-color="#EF0B00" stop-opacity="0"/>
</linearGradient>
<linearGradient id="paint39_linear_984_2744" x1="9.32277" y1="4.62536" x2="9.15834" y2="5.31908" gradientUnits="userSpaceOnUse">
<stop stop-color="#EF0B00"/>
<stop offset="0.8157" stop-color="#EF0B00" stop-opacity="0"/>
</linearGradient>
<linearGradient id="paint40_linear_984_2744" x1="14.0543" y1="5.57142" x2="14.0543" y2="9.59845" gradientUnits="userSpaceOnUse">
<stop stop-color="#FF7044"/>
<stop offset="0.2064" stop-color="#FE6A40"/>
<stop offset="0.4848" stop-color="#FD5935"/>
<stop offset="0.8029" stop-color="#FA3D22"/>
<stop offset="0.9959" stop-color="#F82814"/>
</linearGradient>
<linearGradient id="paint41_linear_984_2744" x1="15.0927" y1="1.54025" x2="15.0927" y2="7.04849" gradientUnits="userSpaceOnUse">
<stop stop-color="#FF7044"/>
<stop offset="0.2064" stop-color="#FE6A40"/>
<stop offset="0.4848" stop-color="#FD5935"/>
<stop offset="0.8029" stop-color="#FA3D22"/>
<stop offset="0.9959" stop-color="#F82814"/>
</linearGradient>
<linearGradient id="paint42_linear_984_2744" x1="12.0002" y1="5.1855" x2="12.0002" y2="8.16187" gradientUnits="userSpaceOnUse">
<stop stop-color="#FF7044"/>
<stop offset="0.2064" stop-color="#FE6A40"/>
<stop offset="0.4848" stop-color="#FD5935"/>
<stop offset="0.8029" stop-color="#FA3D22"/>
<stop offset="0.9959" stop-color="#F82814"/>
</linearGradient>
<linearGradient id="paint43_linear_984_2744" x1="10.1136" y1="4.58179" x2="11.7893" y2="6.25748" gradientUnits="userSpaceOnUse">
<stop stop-color="#FFB7A3"/>
<stop offset="1" stop-color="#FFB7A3" stop-opacity="0"/>
</linearGradient>
<linearGradient id="paint44_linear_984_2744" x1="14.0076" y1="4.06836" x2="14.4256" y2="4.64518" gradientUnits="userSpaceOnUse">
<stop stop-color="#EF0B00"/>
<stop offset="0.8157" stop-color="#EF0B00" stop-opacity="0"/>
</linearGradient>
<linearGradient id="paint45_linear_984_2744" x1="14.6812" y1="4.62748" x2="14.8456" y2="5.32115" gradientUnits="userSpaceOnUse">
<stop stop-color="#EF0B00"/>
<stop offset="0.8157" stop-color="#EF0B00" stop-opacity="0"/>
</linearGradient>
</defs>
</svg>
