<svg width="21" height="16" viewBox="0 0 21 16" fill="none" xmlns="http://www.w3.org/2000/svg">
<rect x="10.8675" y="10.151" width="7.665" height="2.415" rx="0.6825" stroke="#FF8303" stroke-width="0.735"/>
<path d="M19.0749 0H1.92507C1.41469 0.000575341 0.925384 0.203574 0.564489 0.564461C0.203595 0.925347 0.000586215 1.41465 0 1.92503L0 13.4422C0.000575362 13.9526 0.203579 14.4419 0.564475 14.8028C0.925371 15.1637 1.41469 15.3667 1.92507 15.3673H19.0749C19.5853 15.3667 20.0746 15.1637 20.4355 14.8028C20.7964 14.4419 20.9994 13.9526 21 13.4422V1.92503C20.9994 1.41465 20.7964 0.925347 20.4355 0.564461C20.0746 0.203574 19.5853 0.000575341 19.0749 0ZM20.3438 1.92503V5.15731H8.67304C9.10781 4.82479 9.36994 4.33498 9.36994 3.77885C9.36937 3.2993 9.17862 2.83956 8.83953 2.50047C8.50044 2.16138 8.0407 1.97063 7.56115 1.97006C7.00498 1.97006 6.51525 2.23236 6.18261 2.667V0.65625H19.0749C19.4113 0.65663 19.7338 0.790425 19.9717 1.02828C20.2096 1.26614 20.3434 1.58864 20.3438 1.92503ZM2.77741 3.77893C2.77778 3.47337 2.89933 3.18044 3.11539 2.96437C3.33146 2.74831 3.62439 2.62676 3.92995 2.62639C4.61516 2.62639 5.00928 3.24622 5.08544 3.82212L5.25513 5.10415L3.97302 4.93455C3.3972 4.85814 2.77741 4.46389 2.77741 3.77893ZM6.23589 5.10403L6.40553 3.822C6.48174 3.2461 6.8759 2.62627 7.56107 2.62627C7.86662 2.62664 8.15956 2.74819 8.37563 2.96425C8.59169 3.18031 8.71324 3.47325 8.7136 3.77881C8.7136 4.46377 8.09382 4.85805 7.51792 4.9343L6.23589 5.10403ZM1.92507 0.65625H5.52624V3.02179C5.216 2.37866 4.62455 1.96998 3.92999 1.96998C3.45045 1.97055 2.9907 2.16129 2.65161 2.50039C2.31252 2.83948 2.12177 3.29922 2.1212 3.77877C2.1212 4.3349 2.38346 4.82467 2.81814 5.15722H0.65625V1.92503C0.656641 1.58864 0.790446 1.26614 1.02831 1.02828C1.26618 0.790425 1.58868 0.65663 1.92507 0.65625ZM0.65625 13.4422V5.8136H5.09111L3.7581 7.21957C3.72804 7.25075 3.70445 7.28757 3.68869 7.3279C3.67293 7.36824 3.66531 7.4113 3.66627 7.4546C3.66723 7.49789 3.67676 7.54057 3.69429 7.58017C3.71183 7.61976 3.73703 7.6555 3.76844 7.68531C3.79985 7.71513 3.83685 7.73842 3.87731 7.75387C3.91777 7.76931 3.96089 7.77659 4.00418 7.77529C4.04746 7.77399 4.09006 7.76413 4.12952 7.74629C4.16898 7.72844 4.20452 7.70296 4.23408 7.67132L5.52608 6.30861V14.711H1.9249C1.58854 14.7106 1.26609 14.5768 1.02825 14.3389C0.790424 14.101 0.656641 13.7786 0.65625 13.4422ZM19.0749 14.711H6.18253V6.31751L8.48888 8.78694C8.51816 8.81895 8.55349 8.84483 8.59283 8.86309C8.63217 8.88136 8.67475 8.89164 8.71809 8.89335C8.76143 8.89505 8.80468 8.88815 8.84534 8.87303C8.88599 8.85792 8.92325 8.83489 8.95495 8.80529C8.98665 8.77568 9.01217 8.74008 9.03002 8.70055C9.04788 8.66103 9.05772 8.61835 9.05898 8.57499C9.06024 8.53163 9.05289 8.48846 9.03735 8.44796C9.02182 8.40746 8.99841 8.37045 8.96848 8.33905L6.60979 5.81343H13.4768H20.3438V13.4422C20.3434 13.7786 20.2096 14.1011 19.9717 14.339C19.7338 14.5768 19.4113 14.7107 19.0749 14.711Z" fill="#111111"/>
</svg>
