<svg width="20" height="20" viewBox="0 0 20 20" fill="none" xmlns="http://www.w3.org/2000/svg">
<path d="M0.00651145 9.71812C0.0390237 9.4639 0.2529 9.02204 0.416245 8.81834L8.83849 0.393223C9.50441 -0.14265 10.6126 -0.13795 11.2436 0.451198L19.736 9.00167C20.2719 9.94493 19.98 11.1828 18.9694 11.6614C18.873 11.7069 18.5589 11.8291 18.4727 11.8291H17.8671L17.8687 17.9885C17.8413 18.9388 16.9689 19.8876 16.03 20H12.3565C12.1136 19.8613 11.9593 19.7321 11.9264 19.4332L11.917 14.5163C11.8394 14.1739 11.566 13.8555 11.2248 13.7622C10.8452 13.6584 9.21532 13.6592 8.83027 13.7552C8.41779 13.8578 8.1338 14.1974 8.09502 14.6225C7.95518 16.1478 8.20274 17.8851 8.09659 19.4328C8.06407 19.7317 7.90935 19.8609 7.66648 19.9996H3.99299C3.02349 19.8073 2.2338 19.0344 2.15428 18.0269L2.15624 11.8283H1.55065C1.42883 11.8283 1.00225 11.6352 0.879643 11.5612C0.390783 11.2662 0.140869 10.8091 0.00690317 10.2646C0.0225717 10.0907 -0.0146411 9.88617 0.00690317 9.71734L0.00651145 9.71812ZM4.16848 18.8272H6.92379V14.3506C6.92379 13.6447 7.8028 12.8174 8.44795 12.6302C9.03631 12.4594 11.0822 12.4649 11.6631 12.6592C12.2668 12.8613 13.0992 13.6839 13.0992 14.3502V18.8268H15.8545C16.2008 18.8268 16.6736 18.3375 16.6916 17.983L16.7131 11.0848C16.9517 10.4334 17.7022 10.7162 18.2389 10.6563C18.7449 10.5995 19.0223 10.0111 18.7085 9.59943L10.2847 1.21466C10.0552 1.12966 9.81269 1.12613 9.61918 1.29183L1.31445 9.59943C0.983839 10.01 1.28663 10.6003 1.7845 10.6563C2.26905 10.7107 3.13553 10.4479 3.30161 11.0935L3.33138 17.9834C3.38505 18.3943 3.75913 18.7692 4.16848 18.8272Z" fill="white"/>
</svg>
