<svg width="36" height="30" viewBox="0 0 36 30" fill="none" xmlns="http://www.w3.org/2000/svg">
<path d="M3.67871 1.35897C3.85348 0.565323 4.55676 6.88637e-05 5.36941 6.88993e-05L30.017 6.99766e-05C31.1232 7.0025e-05 31.9456 1.02331 31.7077 2.10361L28.4923 16.705C28.3175 17.4986 27.6142 18.0639 26.8016 18.0639L2.15394 18.0639C1.04776 18.0639 0.225336 17.0406 0.463237 15.9603L3.67871 1.35897Z" fill="#EFEFEF"/>
<path d="M6.23598 3.35639C6.26536 3.223 6.38355 3.128 6.52014 3.128L10.6626 3.128C10.8485 3.128 10.9868 3.29997 10.9468 3.48154L10.4064 5.93556C10.377 6.06895 10.2588 6.16395 10.1222 6.16395L5.97972 6.16395C5.7938 6.16395 5.65558 5.99198 5.69556 5.81041L6.23598 3.35639Z" fill="#111111"/>
<path d="M4.12576 14.4009C4.12672 14.252 4.24776 14.1317 4.39673 14.1317L8.59312 14.1317C8.74346 14.1317 8.86506 14.2541 8.86409 14.4045C8.86313 14.5534 8.74209 14.6737 8.59312 14.6737L4.39673 14.6737C4.24639 14.6737 4.12479 14.5513 4.12576 14.4009Z" fill="#111111"/>
<path d="M5.56824 18.0586L6.80054 13.1926C6.99508 12.4244 7.68634 11.8864 8.47877 11.8864L32.9429 11.8864C34.0491 11.8864 34.8715 12.9096 34.6336 13.9899L31.4181 28.5913C31.2433 29.3849 30.5401 29.9502 29.7274 29.9502L5.07979 29.9502C3.9736 29.9502 3.15118 28.9269 3.38908 27.8466L4.91482 20.9183L5.56824 18.0586Z" fill="white"/>
<path d="M18.0033 11.8938L19.5583 5.91542L8.3212 18.0535L16.9615 18.0535L15.4194 23.948L26.8041 11.8938L18.0033 11.8938Z" fill="#111111"/>
<path d="M5.66531 27.2706C5.66627 27.1216 5.78731 27.0013 5.93628 27.0013L10.1327 27.0013C10.283 27.0013 10.4046 27.1237 10.4036 27.2741C10.4027 27.423 10.2816 27.5433 10.1327 27.5433L5.93628 27.5433C5.78594 27.5433 5.66434 27.4209 5.66531 27.2706Z" fill="#111111"/>
<path d="M11.9911 27.2706C11.9921 27.1216 12.1131 27.0013 12.2621 27.0013L16.4585 27.0013C16.6088 27.0013 16.7304 27.1237 16.7294 27.2741C16.7285 27.423 16.6074 27.5433 16.4585 27.5433L12.2621 27.5433C12.1117 27.5433 11.9901 27.4209 11.9911 27.2706Z" fill="#111111"/>
<path d="M18.3169 27.2706C18.3179 27.1216 18.4389 27.0013 18.5879 27.0013L22.7843 27.0013C22.9346 27.0013 23.0562 27.1237 23.0552 27.2741C23.0543 27.423 22.9332 27.5433 22.7843 27.5433L18.5879 27.5433C18.4375 27.5433 18.3159 27.4209 18.3169 27.2706Z" fill="#111111"/>
<path d="M24.6427 27.2706C24.6437 27.1216 24.7647 27.0013 24.9137 27.0013L29.1101 27.0013C29.2604 27.0013 29.382 27.1237 29.381 27.2741C29.3801 27.423 29.259 27.5433 29.1101 27.5433L24.9137 27.5433C24.7633 27.5433 24.6417 27.4209 24.6427 27.2706Z" fill="#111111"/>
</svg>
