<svg width="21" height="20" viewBox="0 0 21 20" fill="none" xmlns="http://www.w3.org/2000/svg">
<path d="M9.65978 11.7759C9.73484 11.8509 9.83663 11.8931 9.94278 11.8931C10.0489 11.8931 10.1507 11.8509 10.2258 11.7759C10.3008 11.7008 10.343 11.599 10.343 11.4929C10.343 11.3867 10.3008 11.2849 10.2258 11.2099C9.92656 10.9099 9.75852 10.5035 9.75852 10.0799C9.75852 9.65621 9.92656 9.24983 10.2258 8.94989L11.3458 7.8299C11.6519 7.56529 12.0469 7.42648 12.4512 7.44143C12.8556 7.45637 13.2392 7.62397 13.525 7.91046C13.8107 8.19696 13.9773 8.58107 13.9911 8.98546C14.005 9.38985 13.8652 9.78447 13.5997 10.0899L12.7397 10.9499C12.6647 11.0249 12.6225 11.1267 12.6225 11.2329C12.6225 11.339 12.6647 11.4408 12.7397 11.5159C12.8148 11.5909 12.9166 11.6331 13.0227 11.6331C13.1289 11.6331 13.2307 11.5909 13.3057 11.5159L14.1657 10.6559C14.6166 10.205 14.8699 9.59351 14.8699 8.95589C14.8699 8.31827 14.6166 7.70677 14.1657 7.25591C13.7149 6.80505 13.1034 6.55176 12.4657 6.55176C11.8281 6.55176 11.2166 6.80505 10.7658 7.25591L9.64578 8.3759C9.42296 8.59978 9.24652 8.86545 9.12659 9.15767C9.00665 9.44989 8.94559 9.76291 8.94689 10.0788C8.94819 10.3947 9.01183 10.7072 9.13417 10.9984C9.2565 11.2896 9.43512 11.5538 9.65978 11.7759Z" fill="#FF8303"/>
<path d="M8.17994 10.9818C8.25499 10.9068 8.29716 10.805 8.29716 10.6989C8.29716 10.5927 8.25499 10.4909 8.17994 10.4159C8.10488 10.3408 8.00309 10.2986 7.89694 10.2986C7.7908 10.2986 7.689 10.3408 7.61395 10.4159L6.81396 11.2158C6.36309 11.6667 6.1098 12.2782 6.1098 12.9158C6.1098 13.5534 6.36309 14.1649 6.81396 14.6158C7.26482 15.0667 7.87632 15.32 8.51393 15.32C9.15155 15.32 9.76305 15.0667 10.2139 14.6158L11.3359 13.4958C11.5596 13.2728 11.7372 13.0079 11.8583 12.7162C11.9794 12.4245 12.0418 12.1117 12.0418 11.7958C12.0418 11.48 11.9794 11.1672 11.8583 10.8755C11.7372 10.5838 11.5596 10.3188 11.3359 10.0959C11.2987 10.0587 11.2546 10.0292 11.2061 10.0091C11.1575 9.98899 11.1055 9.97864 11.0529 9.97864C11.0003 9.97864 10.9483 9.98899 10.8997 10.0091C10.8512 10.0292 10.8071 10.0587 10.7699 10.0959C10.7327 10.133 10.7033 10.1771 10.6831 10.2257C10.663 10.2743 10.6527 10.3263 10.6527 10.3789C10.6527 10.4314 10.663 10.4835 10.6831 10.532C10.7033 10.5806 10.7327 10.6247 10.7699 10.6619C11.0691 10.9618 11.2372 11.3682 11.2372 11.7918C11.2372 12.2155 11.0691 12.6219 10.7699 12.9218L9.64992 14.0418C9.50377 14.2 9.32718 14.3271 9.13073 14.4155C8.93428 14.5038 8.72202 14.5516 8.50667 14.5559C8.29132 14.5602 8.07731 14.521 7.87747 14.4406C7.67764 14.3602 7.4961 14.2403 7.34372 14.0881C7.19134 13.9358 7.07128 13.7544 6.99072 13.5546C6.91016 13.3549 6.87076 13.1409 6.87489 12.9255C6.87902 12.7102 6.92659 12.4979 7.01475 12.3014C7.10291 12.1048 7.22985 11.9281 7.38795 11.7818L8.17994 10.9818Z" fill="#FF8303"/>
<path d="M0 9.99987C0 10.5303 0.210711 11.039 0.585779 11.4141C0.960847 11.7891 1.46955 11.9998 1.99997 11.9998H5.21193C5.31802 11.9998 5.41976 11.9577 5.49477 11.8827C5.56979 11.8077 5.61193 11.7059 5.61193 11.5999C5.61193 11.4938 5.56979 11.392 5.49477 11.317C5.41976 11.242 5.31802 11.1999 5.21193 11.1999H1.99997C1.68172 11.1999 1.3765 11.0734 1.15146 10.8484C0.926416 10.6233 0.79999 10.3181 0.79999 9.99987V1.99997C0.79999 1.68172 0.926416 1.3765 1.15146 1.15146C1.3765 0.926416 1.68172 0.79999 1.99997 0.79999H14.7998C15.1181 0.79999 15.4233 0.926416 15.6483 1.15146C15.8734 1.3765 15.9998 1.68172 15.9998 1.99997V9.99987C15.9998 10.3181 15.8734 10.6233 15.6483 10.8484C15.4233 11.0734 15.1181 11.1999 14.7998 11.1999C14.6937 11.1999 14.592 11.242 14.517 11.317C14.442 11.392 14.3998 11.4938 14.3998 11.5999C14.3998 11.7059 14.442 11.8077 14.517 11.8827C14.592 11.9577 14.6937 11.9998 14.7998 11.9998C15.0625 11.9998 15.3225 11.9481 15.5652 11.8476C15.8078 11.7471 16.0283 11.5998 16.214 11.4141C16.3997 11.2284 16.547 11.0079 16.6475 10.7652C16.7481 10.5226 16.7998 10.2625 16.7998 9.99987V1.99997C16.7998 1.73733 16.7481 1.47727 16.6475 1.23462C16.547 0.991969 16.3997 0.771494 16.214 0.585779C16.0283 0.400064 15.8078 0.252747 15.5652 0.152239C15.3225 0.0517307 15.0625 0 14.7998 0H1.99997C1.46955 0 0.960847 0.210711 0.585779 0.585779C0.210711 0.960847 0 1.46955 0 1.99997V9.99987Z" fill="white"/>
<path d="M20.7998 10.0001C20.7998 9.46967 20.589 8.96097 20.214 8.5859C19.8389 8.21083 19.3302 8.00012 18.7998 8.00012H17.9998C17.8937 8.00012 17.792 8.04226 17.717 8.11728C17.6419 8.19229 17.5998 8.29403 17.5998 8.40012C17.5998 8.5062 17.6419 8.60794 17.717 8.68296C17.792 8.75797 17.8937 8.80011 17.9998 8.80011H18.7998C19.118 8.80011 19.4233 8.92654 19.6483 9.15158C19.8733 9.37662 19.9998 9.68184 19.9998 10.0001V18C19.9998 18.3183 19.8733 18.6235 19.6483 18.8485C19.4233 19.0736 19.118 19.2 18.7998 19.2H5.99994C5.68169 19.2 5.37647 19.0736 5.15143 18.8485C4.92639 18.6235 4.79996 18.3183 4.79996 18V13.2001C4.79996 13.094 4.75782 12.9922 4.6828 12.9172C4.60779 12.8422 4.50605 12.8001 4.39996 12.8001C4.29388 12.8001 4.19214 12.8422 4.11712 12.9172C4.04211 12.9922 3.99997 13.094 3.99997 13.2001V18C3.99997 18.5304 4.21068 19.0391 4.58575 19.4142C4.96082 19.7893 5.46952 20 5.99994 20H18.7998C19.3302 20 19.8389 19.7893 20.214 19.4142C20.589 19.0391 20.7998 18.5304 20.7998 18V10.0001Z" fill="white"/>
<path d="M5.99989 4H2.79993C2.69384 4 2.5921 4.04214 2.51709 4.11716C2.44208 4.19217 2.39993 4.29391 2.39993 4.39999V6.79996C2.39993 6.90605 2.44208 7.00779 2.51709 7.0828C2.5921 7.15782 2.69384 7.19996 2.79993 7.19996H5.99989C6.10597 7.19996 6.20771 7.15782 6.28273 7.0828C6.35774 7.00779 6.39988 6.90605 6.39988 6.79996V4.39999C6.39988 4.29391 6.35774 4.19217 6.28273 4.11716C6.20771 4.04214 6.10597 4 5.99989 4ZM5.59989 6.39997H3.19992V4.79999H5.59989V6.39997Z" fill="white"/>
<path d="M6.7999 16.8C6.69381 16.8 6.59207 16.8422 6.51706 16.9172C6.44204 16.9922 6.3999 17.094 6.3999 17.2C6.3999 17.3061 6.44204 17.4079 6.51706 17.4829C6.59207 17.5579 6.69381 17.6 6.7999 17.6H9.99986C10.1059 17.6 10.2077 17.5579 10.2827 17.4829C10.3577 17.4079 10.3999 17.3061 10.3999 17.2C10.3999 17.094 10.3577 16.9922 10.2827 16.9172C10.2077 16.8422 10.1059 16.8 9.99986 16.8H6.7999Z" fill="white"/>
<path d="M11.1998 17.2C11.1998 17.3061 11.2419 17.4079 11.3169 17.4829C11.3919 17.5579 11.4937 17.6 11.5998 17.6H17.9997C18.1058 17.6 18.2075 17.5579 18.2825 17.4829C18.3575 17.4079 18.3997 17.3061 18.3997 17.2C18.3997 17.094 18.3575 16.9922 18.2825 16.9172C18.2075 16.8422 18.1058 16.8 17.9997 16.8H11.5998C11.4937 16.8 11.3919 16.8422 11.3169 16.9172C11.2419 16.9922 11.1998 17.094 11.1998 17.2Z" fill="white"/>
<path d="M13.9998 3.19989C14.1059 3.19989 14.2077 3.15775 14.2827 3.08274C14.3577 3.00772 14.3998 2.90598 14.3998 2.7999C14.3998 2.69381 14.3577 2.59207 14.2827 2.51706C14.2077 2.44204 14.1059 2.3999 13.9998 2.3999H10.7999C10.6938 2.3999 10.592 2.44204 10.517 2.51706C10.442 2.59207 10.3999 2.69381 10.3999 2.7999C10.3999 2.90598 10.442 3.00772 10.517 3.08274C10.592 3.15775 10.6938 3.19989 10.7999 3.19989H13.9998Z" fill="white"/>
</svg>
