<svg width="15" height="25" viewBox="0 0 15 25" fill="none" xmlns="http://www.w3.org/2000/svg">
<path d="M12.5 0H1.78571C0.799107 0 0 0.799107 0 1.78571V23.2143C0 24.2009 0.799107 25 1.78571 25H12.5C13.4866 25 14.2857 24.2009 14.2857 23.2143V1.78571C14.2857 0.799107 13.4866 0 12.5 0ZM13.3929 23.2143C13.3929 23.7054 12.9911 24.1071 12.5 24.1071H1.78571C1.29464 24.1071 0.892857 23.7054 0.892857 23.2143V1.78571C0.892857 1.29464 1.29464 0.892857 1.78571 0.892857H12.5C12.9911 0.892857 13.3929 1.29464 13.3929 1.78571V23.2143Z" fill="white"/>
<path d="M8.4821 22.3214H5.80353C5.55799 22.3214 5.3571 22.5223 5.3571 22.7678C5.3571 23.0134 5.55799 23.2143 5.80353 23.2143H8.4821C8.72764 23.2143 8.92853 23.0134 8.92853 22.7678C8.92853 22.5223 8.72764 22.3214 8.4821 22.3214Z" fill="white"/>
<path d="M2.69041 8.32728C2.91303 8.32728 3.09517 8.14513 3.09517 7.92252V7.11299H3.90469C4.12731 7.11299 4.30946 6.93085 4.30946 6.70823C4.30946 6.48561 4.12731 6.30347 3.90469 6.30347H2.69041C2.46779 6.30347 2.28564 6.48561 2.28564 6.70823V7.92252C2.28564 8.14513 2.46779 8.32728 2.69041 8.32728Z" fill="#FF8303"/>
<path d="M11.5952 6.30347H9.57143C9.34881 6.30347 9.16667 6.48561 9.16667 6.70823V8.73204C9.16667 8.95466 9.34881 9.1368 9.57143 9.1368H11.5952C11.8179 9.1368 12 8.95466 12 8.73204V6.70823C12 6.48561 11.8179 6.30347 11.5952 6.30347ZM11.1905 8.32728H9.9762V7.11299H11.1905V8.32728Z" fill="#FF8303"/>
<path d="M4.30946 13.5894H2.69041C2.46779 13.5894 2.28564 13.7715 2.28564 13.9941V15.6132C2.28564 15.8358 2.46779 16.0179 2.69041 16.0179H4.30946C4.53207 16.0179 4.71422 15.8358 4.71422 15.6132V13.9941C4.71422 13.7715 4.53207 13.5894 4.30946 13.5894ZM3.90469 15.2084H3.09517V14.3989H3.90469V15.2084Z" fill="#FF8303"/>
<path d="M11.5952 13.1844H9.57143C9.34881 13.1844 9.16667 13.3666 9.16667 13.5892V15.613C9.16667 15.8356 9.34881 16.0178 9.57143 16.0178H11.5952C11.8179 16.0178 12 15.8356 12 15.613V13.5892C12 13.3666 11.8179 13.1844 11.5952 13.1844ZM11.1905 15.2083H9.9762V13.994H11.1905V15.2083Z" fill="#FF8303"/>
<path d="M7.95245 9.13697C8.17507 9.13697 8.35721 8.95483 8.35721 8.73221V7.51792C8.35721 7.2953 8.17507 7.11316 7.95245 7.11316C7.72983 7.11316 7.54768 7.2953 7.54768 7.51792V8.73221C7.54768 8.95483 7.72983 9.13697 7.95245 9.13697Z" fill="#FF8303"/>
<path d="M5.52373 7.11299H6.33326V7.51775C6.33326 7.74037 6.5154 7.92252 6.73802 7.92252C6.96064 7.92252 7.14278 7.74037 7.14278 7.51775V6.70823C7.14278 6.48561 6.96064 6.30347 6.73802 6.30347H5.52373C5.30112 6.30347 5.11897 6.48561 5.11897 6.70823C5.11897 6.93085 5.30112 7.11299 5.52373 7.11299Z" fill="#FF8303"/>
<path d="M4.30946 11.9702H3.09517V9.5416C3.09517 9.31898 2.91303 9.13684 2.69041 9.13684C2.46779 9.13684 2.28564 9.31898 2.28564 9.5416V12.3749C2.28564 12.5976 2.46779 12.7797 2.69041 12.7797H4.30946C4.53207 12.7797 4.71422 12.5976 4.71422 12.3749C4.71422 12.1523 4.53207 11.9702 4.30946 11.9702Z" fill="#FF8303"/>
<path d="M3.90476 11.5655H5.11905C5.34167 11.5655 5.52381 11.3834 5.52381 11.1607C5.52381 10.9381 5.34167 10.756 5.11905 10.756H3.90476C3.68214 10.756 3.5 10.9381 3.5 11.1607C3.5 11.3834 3.68214 11.5655 3.90476 11.5655Z" fill="#FF8303"/>
<path d="M5.52373 12.7798H6.33326C6.55588 12.7798 6.73802 12.5976 6.73802 12.375V11.1607C6.73802 10.9381 6.55588 10.756 6.33326 10.756C6.11064 10.756 5.9285 10.9381 5.9285 11.1607V11.9703H5.52373C5.30112 11.9703 5.11897 12.1524 5.11897 12.375C5.11897 12.5976 5.30112 12.7798 5.52373 12.7798Z" fill="#FF8303"/>
<path d="M6.33326 16.0178C6.55588 16.0178 6.73802 15.8357 6.73802 15.6131C6.73802 15.3904 6.55588 15.2083 6.33326 15.2083H5.9285V14.3988C5.9285 14.1762 5.74635 13.994 5.52373 13.994C5.30112 13.994 5.11897 14.1762 5.11897 14.3988V15.6131C5.11897 15.8357 5.30112 16.0178 5.52373 16.0178H6.33326Z" fill="#FF8303"/>
<path d="M8.35711 15.2084H7.54758C7.32497 15.2084 7.14282 15.3905 7.14282 15.6131C7.14282 15.8358 7.32497 16.0179 7.54758 16.0179H8.35711C8.57973 16.0179 8.76187 15.8358 8.76187 15.6131C8.76187 15.3905 8.57973 15.2084 8.35711 15.2084Z" fill="#FF8303"/>
<path d="M9.97626 11.9701H7.95245C7.72983 11.9701 7.54768 12.1522 7.54768 12.3749V13.5891C7.54768 13.8118 7.72983 13.9939 7.95245 13.9939C8.17507 13.9939 8.35721 13.8118 8.35721 13.5891V12.7796H9.97626C10.1989 12.7796 10.381 12.5975 10.381 12.3749C10.381 12.1522 10.1989 11.9701 9.97626 11.9701Z" fill="#FF8303"/>
<path d="M8.35714 9.94639C8.35714 9.72377 8.175 9.54163 7.95238 9.54163H6.73809C6.51547 9.54163 6.33333 9.72377 6.33333 9.94639C6.33333 10.169 6.51547 10.3512 6.73809 10.3512H7.54761V11.1607C7.54761 11.3833 7.72976 11.5654 7.95238 11.5654H8.35714C8.57976 11.5654 8.7619 11.3833 8.7619 11.1607C8.7619 10.9381 8.57976 10.7559 8.35714 10.7559V9.94639Z" fill="#FF8303"/>
<path d="M9.9762 10.756H9.57143C9.34881 10.756 9.16667 10.9381 9.16667 11.1607C9.16667 11.3834 9.34881 11.5655 9.57143 11.5655H9.9762C10.1988 11.5655 10.381 11.3834 10.381 11.1607C10.381 10.9381 10.1988 10.756 9.9762 10.756Z" fill="#FF8303"/>
<path d="M6.73809 14.8035C6.96071 14.8035 7.14285 14.6214 7.14285 14.3987V13.5892C7.14285 13.3666 6.96071 13.1844 6.73809 13.1844C6.51547 13.1844 6.33333 13.3666 6.33333 13.5892V14.3987C6.33333 14.6214 6.51547 14.8035 6.73809 14.8035Z" fill="#FF8303"/>
<path d="M3.90476 9.9464H5.52381C5.74643 9.9464 5.92857 9.76425 5.92857 9.54163V7.92258C5.92857 7.69997 5.74643 7.51782 5.52381 7.51782H3.90476C3.68214 7.51782 3.5 7.69997 3.5 7.92258V9.54163C3.5 9.76425 3.68214 9.9464 3.90476 9.9464ZM4.30952 8.32735H5.11905V9.13687H4.30952V8.32735Z" fill="#FF8303"/>
<path d="M11.5952 9.54163H9.57143C9.34881 9.54163 9.16667 9.72377 9.16667 9.94639C9.16667 10.169 9.34881 10.3512 9.57143 10.3512H11.1905V11.5654C11.1905 11.7881 11.3726 11.9702 11.5952 11.9702C11.8179 11.9702 12 11.7881 12 11.5654V9.94639C12 9.72377 11.8179 9.54163 11.5952 9.54163Z" fill="#FF8303"/>
</svg>
