<svg width="26" height="22" viewBox="0 0 26 22" fill="none" xmlns="http://www.w3.org/2000/svg">
<path d="M19.7571 11.9166C19.1143 11.9166 18.4859 12.1072 17.9515 12.4643C17.417 12.8214 17.0004 13.329 16.7545 13.9228C16.5085 14.5167 16.4441 15.1702 16.5695 15.8006C16.6949 16.4311 17.0044 17.0101 17.459 17.4647C17.9135 17.9192 18.4926 18.2287 19.123 18.3541C19.7535 18.4795 20.4069 18.4152 21.0008 18.1692C21.5946 17.9232 22.1022 17.5066 22.4593 16.9722C22.8165 16.4377 23.0071 15.8094 23.0071 15.1666C23.0061 14.3049 22.6634 13.4788 22.0541 12.8695C21.4448 12.2602 20.6187 11.9175 19.7571 11.9166ZM19.7571 17.3332C19.3285 17.3332 18.9096 17.2062 18.5533 16.9681C18.197 16.73 17.9193 16.3916 17.7553 15.9957C17.5913 15.5998 17.5484 15.1642 17.632 14.7439C17.7156 14.3236 17.922 13.9375 18.225 13.6345C18.528 13.3315 18.9141 13.1251 19.3344 13.0415C19.7547 12.9579 20.1903 13.0008 20.5862 13.1648C20.9821 13.3288 21.3205 13.6065 21.5586 13.9628C21.7967 14.3191 21.9237 14.738 21.9237 15.1666C21.9231 15.741 21.6946 16.2917 21.2884 16.6979C20.8822 17.1041 20.3315 17.3326 19.7571 17.3332Z" fill="#FF8303"/>
<path d="M25.0848 16.0931C25.2033 15.4812 25.2033 14.8524 25.0848 14.2406L25.8349 13.5153C25.9218 13.4314 25.9781 13.3208 25.9948 13.2012C26.0115 13.0815 25.9876 12.9597 25.927 12.8552L24.8436 10.9784C24.7836 10.8735 24.69 10.7919 24.5779 10.7467C24.4659 10.7014 24.3419 10.6951 24.2258 10.7287L23.2186 11.017C22.7434 10.6234 22.2036 10.3148 21.6233 10.1051L21.3662 9.0773C21.3368 8.96004 21.2692 8.85596 21.1739 8.78158C21.0786 8.70721 20.9612 8.66681 20.8403 8.66681H18.6737C18.5528 8.66682 18.4354 8.70723 18.3402 8.7816C18.2449 8.85597 18.1772 8.96005 18.1479 9.0773L17.8908 10.1051C17.31 10.3146 16.7699 10.6232 16.2944 11.017L15.2872 10.7287C15.1711 10.6949 15.0471 10.7011 14.935 10.7464C14.8229 10.7917 14.7293 10.8734 14.6694 10.9784L13.586 12.8552C13.5254 12.9597 13.5015 13.0815 13.5182 13.2012C13.5349 13.3208 13.5912 13.4315 13.6781 13.5154L14.4282 14.2406C14.3111 14.8525 14.3111 15.4811 14.4282 16.0931L13.6781 16.8183C13.5912 16.9022 13.5349 17.0128 13.5182 17.1325C13.5015 17.2522 13.5254 17.374 13.586 17.4785L14.6694 19.3553C14.7295 19.46 14.8231 19.5416 14.9351 19.5869C15.0472 19.6321 15.1711 19.6385 15.2872 19.6049L16.2944 19.3166C16.7699 19.7105 17.31 20.019 17.8908 20.2286L18.1479 21.2564C18.1772 21.3736 18.2449 21.4777 18.3402 21.552C18.4354 21.6264 18.5528 21.6668 18.6737 21.6668H20.8403C20.9612 21.6668 21.0786 21.6264 21.1739 21.552C21.2691 21.4777 21.3368 21.3736 21.3661 21.2563L21.6232 20.2285C22.2036 20.0188 22.7433 19.7103 23.2186 19.3166L24.2258 19.6049C24.3418 19.6382 24.4657 19.6318 24.5777 19.5865C24.6897 19.5413 24.7833 19.4598 24.8436 19.3552L25.9269 17.4784C25.9876 17.3739 26.0115 17.2521 25.9948 17.1325C25.9781 17.0128 25.9218 16.9022 25.8349 16.8183L25.0848 16.0931ZM24.0903 15.1668C24.0873 15.4989 24.0454 15.8294 23.9655 16.1518C23.9443 16.243 23.9472 16.3381 23.9737 16.428C24.0002 16.5178 24.0495 16.5992 24.1168 16.6643L24.778 17.3033L24.1179 18.447L23.2313 18.1936C23.1413 18.1675 23.046 18.1653 22.9549 18.1873C22.8638 18.2093 22.78 18.2547 22.7118 18.319C22.2278 18.7699 21.6459 19.1025 21.0117 19.2907C20.9222 19.3181 20.8413 19.3681 20.7768 19.436C20.7123 19.5038 20.6664 19.5871 20.6436 19.6779L20.4172 20.5835H19.0969L18.8704 19.6779C18.8476 19.5871 18.8017 19.5038 18.7372 19.4359C18.6727 19.3681 18.5918 19.3181 18.5023 19.2907C17.8677 19.1027 17.2853 18.7701 16.8011 18.3189C16.7329 18.2547 16.6491 18.2094 16.558 18.1874C16.4669 18.1654 16.3717 18.1675 16.2816 18.1936L15.3951 18.4469L14.7349 17.3033L15.3961 16.6643C15.4634 16.5992 15.5128 16.5177 15.5393 16.4279C15.5658 16.3381 15.5686 16.243 15.5474 16.1517C15.3824 15.5055 15.3824 14.8281 15.5474 14.1818C15.5686 14.0906 15.5658 13.9955 15.5393 13.9056C15.5128 13.8158 15.4634 13.7344 15.3961 13.6693L14.7349 13.0303L15.3951 11.8866L16.2816 12.14C16.3717 12.1659 16.4669 12.168 16.5579 12.146C16.649 12.124 16.7328 12.0787 16.8011 12.0146C17.2853 11.5635 17.8677 11.2308 18.5023 11.0429C18.5918 11.0155 18.6727 10.9655 18.7372 10.8976C18.8017 10.8298 18.8476 10.7465 18.8704 10.6557L19.0969 9.75014H20.4172L20.6436 10.6557C20.6664 10.7465 20.7123 10.8299 20.7768 10.8977C20.8413 10.9655 20.9222 11.0156 21.0118 11.043C21.6459 11.2312 22.2278 11.5638 22.7119 12.0147C22.7801 12.0789 22.8639 12.1242 22.955 12.1461C23.0461 12.1681 23.1413 12.166 23.2313 12.1401L24.1179 11.8867L24.778 13.0303L24.1168 13.6693C24.0495 13.7345 24.0002 13.8159 23.9737 13.9057C23.9472 13.9955 23.9444 14.0907 23.9655 14.1819C24.0454 14.5042 24.0873 14.8348 24.0903 15.1668Z" fill="#FF8303"/>
<path d="M11.375 16.2501H2.16667C1.87946 16.2497 1.60413 16.1354 1.40105 15.9324C1.19796 15.7293 1.08371 15.4539 1.08333 15.1667V7.5834H22.75V8.12507C22.75 8.26873 22.8071 8.4065 22.9087 8.50809C23.0103 8.60967 23.148 8.66674 23.2917 8.66674C23.4353 8.66674 23.5731 8.60967 23.6747 8.50809C23.7763 8.4065 23.8334 8.26873 23.8334 8.12507V2.16673C23.8328 1.59227 23.6043 1.0415 23.1981 0.635297C22.7919 0.229092 22.2411 0.000634635 21.6667 6.10352e-05H2.16667C1.59221 0.000634635 1.04144 0.229092 0.635236 0.635297C0.229031 1.0415 0.0005736 1.59227 0 2.16673L0 15.1667C0.0005736 15.7412 0.229031 16.292 0.635236 16.6982C1.04144 17.1044 1.59221 17.3328 2.16667 17.3334H11.375C11.5187 17.3334 11.6564 17.2763 11.758 17.1748C11.8596 17.0732 11.9167 16.9354 11.9167 16.7917C11.9167 16.6481 11.8596 16.5103 11.758 16.4087C11.6564 16.3071 11.5187 16.2501 11.375 16.2501ZM1.08333 2.16673C1.08371 1.87953 1.19796 1.60419 1.40105 1.40111C1.60413 1.19802 1.87946 1.08377 2.16667 1.0834H21.6667C21.9539 1.08377 22.2292 1.19802 22.4323 1.40111C22.6354 1.60419 22.7496 1.87953 22.75 2.16673V3.25006H1.08333V2.16673ZM1.08333 4.3334H22.75V6.50007H1.08333V4.3334Z" fill="#111111"/>
</svg>
