<svg width="26" height="22" viewBox="0 0 26 22" fill="none" xmlns="http://www.w3.org/2000/svg">
<path d="M19.7571 11.9166C19.1143 11.9166 18.4859 12.1072 17.9515 12.4644C17.417 12.8215 17.0004 13.329 16.7545 13.9229C16.5085 14.5168 16.4441 15.1702 16.5695 15.8007C16.6949 16.4311 17.0044 17.0102 17.459 17.4647C17.9135 17.9192 18.4926 18.2288 19.123 18.3542C19.7535 18.4796 20.4069 18.4152 21.0008 18.1692C21.5947 17.9233 22.1022 17.5067 22.4593 16.9722C22.8165 16.4378 23.0071 15.8094 23.0071 15.1666C23.0061 14.305 22.6634 13.4789 22.0541 12.8696C21.4448 12.2603 20.6187 11.9176 19.7571 11.9166ZM19.7571 17.3333C19.3285 17.3333 18.9096 17.2062 18.5533 16.9681C18.197 16.7301 17.9193 16.3917 17.7553 15.9958C17.5913 15.5999 17.5484 15.1642 17.632 14.7439C17.7156 14.3236 17.922 13.9376 18.225 13.6346C18.528 13.3315 18.9141 13.1252 19.3344 13.0416C19.7547 12.958 20.1903 13.0009 20.5862 13.1649C20.9821 13.3289 21.3205 13.6066 21.5586 13.9629C21.7967 14.3192 21.9237 14.7381 21.9237 15.1666C21.9231 15.7411 21.6946 16.2918 21.2884 16.698C20.8822 17.1042 20.3315 17.3326 19.7571 17.3333Z" fill="#FF8303"/>
<path d="M25.0848 16.0931C25.2033 15.4813 25.2033 14.8524 25.0848 14.2406L25.8349 13.5154C25.9218 13.4315 25.9781 13.3209 25.9948 13.2012C26.0115 13.0815 25.9876 12.9597 25.927 12.8552L24.8437 10.9785C24.7836 10.8736 24.69 10.792 24.5779 10.7467C24.4659 10.7014 24.3419 10.6951 24.2258 10.7288L23.2186 11.0171C22.7434 10.6234 22.2036 10.3149 21.6233 10.1051L21.3662 9.07736C21.3369 8.9601 21.2692 8.85602 21.1739 8.78164C21.0786 8.70727 20.9612 8.66687 20.8403 8.66687H18.6737C18.5528 8.66688 18.4354 8.70729 18.3402 8.78166C18.2449 8.85603 18.1772 8.96011 18.1479 9.07736L17.8908 10.1051C17.31 10.3147 16.7699 10.6232 16.2944 11.0171L15.2872 10.7288C15.1711 10.6949 15.0471 10.7011 14.935 10.7464C14.8229 10.7917 14.7293 10.8735 14.6694 10.9785L13.586 12.8553C13.5254 12.9598 13.5015 13.0816 13.5182 13.2012C13.5349 13.3209 13.5912 13.4315 13.6781 13.5154L14.4282 14.2406C14.3111 14.8526 14.3111 15.4812 14.4282 16.0931L13.6781 16.8184C13.5912 16.9023 13.5349 17.0129 13.5182 17.1326C13.5015 17.2522 13.5254 17.374 13.586 17.4785L14.6694 19.3553C14.7295 19.4601 14.8231 19.5416 14.9351 19.5869C15.0472 19.6322 15.1711 19.6385 15.2872 19.605L16.2944 19.3167C16.7699 19.7106 17.31 20.0191 17.8908 20.2286L18.1479 21.2564C18.1772 21.3737 18.2449 21.4777 18.3402 21.5521C18.4354 21.6265 18.5528 21.6669 18.6737 21.6669H20.8403C20.9612 21.6669 21.0786 21.6265 21.1739 21.5521C21.2691 21.4777 21.3368 21.3736 21.3661 21.2564L21.6232 20.2286C22.2036 20.0188 22.7433 19.7103 23.2186 19.3167L24.2258 19.6049C24.3418 19.6383 24.4657 19.6318 24.5777 19.5866C24.6897 19.5413 24.7833 19.4599 24.8436 19.3553L25.9269 17.4785C25.9876 17.374 26.0115 17.2522 25.9948 17.1325C25.9781 17.0129 25.9218 16.9022 25.8349 16.8183L25.0848 16.0931ZM24.0903 15.1669C24.0873 15.4989 24.0454 15.8295 23.9655 16.1518C23.9444 16.2431 23.9472 16.3382 23.9737 16.428C24.0002 16.5178 24.0495 16.5993 24.1168 16.6644L24.778 17.3034L24.1179 18.447L23.2313 18.1937C23.1413 18.1676 23.046 18.1654 22.9549 18.1874C22.8638 18.2094 22.78 18.2548 22.7118 18.319C22.2278 18.7699 21.6459 19.1026 21.0117 19.2908C20.9222 19.3182 20.8413 19.3682 20.7768 19.436C20.7123 19.5039 20.6664 19.5872 20.6436 19.678L20.4172 20.5835H19.0969L18.8704 19.6779C18.8476 19.5872 18.8017 19.5038 18.7372 19.436C18.6727 19.3682 18.5918 19.3181 18.5023 19.2907C17.8677 19.1028 17.2853 18.7701 16.8011 18.319C16.7329 18.2548 16.6491 18.2094 16.558 18.1875C16.4669 18.1655 16.3717 18.1676 16.2816 18.1936L15.3951 18.447L14.7349 17.3034L15.3961 16.6644C15.4634 16.5992 15.5128 16.5178 15.5393 16.428C15.5658 16.3382 15.5686 16.243 15.5474 16.1518C15.3824 15.5055 15.3824 14.8282 15.5474 14.1819C15.5686 14.0907 15.5658 13.9955 15.5393 13.9057C15.5128 13.8159 15.4634 13.7344 15.3961 13.6693L14.7349 13.0303L15.3951 11.8867L16.2816 12.1401C16.3717 12.166 16.4669 12.168 16.5579 12.1461C16.649 12.1241 16.7328 12.0788 16.8011 12.0147C17.2853 11.5635 17.8677 11.2309 18.5023 11.0429C18.5918 11.0156 18.6727 10.9655 18.7372 10.8977C18.8017 10.8299 18.8476 10.7465 18.8704 10.6557L19.0969 9.7502H20.4172L20.6436 10.6558C20.6664 10.7466 20.7123 10.8299 20.7768 10.8977C20.8413 10.9656 20.9223 11.0156 21.0118 11.043C21.6459 11.2312 22.2279 11.5638 22.7119 12.0148C22.7801 12.0789 22.8639 12.1242 22.955 12.1462C23.0461 12.1682 23.1413 12.1661 23.2313 12.1401L24.1179 11.8868L24.778 13.0304L24.1168 13.6694C24.0495 13.7345 24.0002 13.8159 23.9737 13.9058C23.9472 13.9956 23.9444 14.0907 23.9655 14.182C24.0454 14.5043 24.0873 14.8348 24.0903 15.1669Z" fill="#FF8303"/>
<path d="M11.375 16.2501H2.16667C1.87946 16.2498 1.60413 16.1355 1.40105 15.9324C1.19796 15.7293 1.08371 15.454 1.08333 15.1668V7.58346H22.75V8.12513C22.75 8.26879 22.8071 8.40656 22.9087 8.50815C23.0103 8.60973 23.148 8.6668 23.2917 8.6668C23.4353 8.6668 23.5731 8.60973 23.6747 8.50815C23.7763 8.40656 23.8334 8.26879 23.8334 8.12513V2.16679C23.8328 1.59233 23.6043 1.04156 23.1981 0.635358C22.7919 0.229153 22.2411 0.000695671 21.6667 0.00012207H2.16667C1.59221 0.000695671 1.04144 0.229153 0.635236 0.635358C0.229031 1.04156 0.0005736 1.59233 0 2.16679L0 15.1668C0.0005736 15.7413 0.229031 16.292 0.635236 16.6982C1.04144 17.1044 1.59221 17.3329 2.16667 17.3335H11.375C11.5187 17.3335 11.6564 17.2764 11.758 17.1748C11.8596 17.0732 11.9167 16.9355 11.9167 16.7918C11.9167 16.6481 11.8596 16.5104 11.758 16.4088C11.6564 16.3072 11.5187 16.2501 11.375 16.2501ZM1.08333 2.16679C1.08371 1.87959 1.19796 1.60425 1.40105 1.40117C1.60413 1.19809 1.87946 1.08383 2.16667 1.08346H21.6667C21.9539 1.08383 22.2292 1.19809 22.4323 1.40117C22.6354 1.60425 22.7496 1.87959 22.75 2.16679V3.25012H1.08333V2.16679ZM1.08333 4.33346H22.75V6.50013H1.08333V4.33346Z" fill="white"/>
</svg>
