<svg width="15" height="25" viewBox="0 0 15 25" fill="none" xmlns="http://www.w3.org/2000/svg">
<path d="M12.5 0H1.78571C0.799107 0 0 0.799107 0 1.78571V23.2143C0 24.2009 0.799107 25 1.78571 25H12.5C13.4866 25 14.2857 24.2009 14.2857 23.2143V1.78571C14.2857 0.799107 13.4866 0 12.5 0ZM13.3929 23.2143C13.3929 23.7054 12.9911 24.1071 12.5 24.1071H1.78571C1.29464 24.1071 0.892857 23.7054 0.892857 23.2143V1.78571C0.892857 1.29464 1.29464 0.892857 1.78571 0.892857H12.5C12.9911 0.892857 13.3929 1.29464 13.3929 1.78571V23.2143Z" fill="#111111"/>
<path d="M8.48211 22.3214H5.80354C5.558 22.3214 5.35711 22.5223 5.35711 22.7678C5.35711 23.0134 5.558 23.2143 5.80354 23.2143H8.48211C8.72764 23.2143 8.92854 23.0134 8.92854 22.7678C8.92854 22.5223 8.72764 22.3214 8.48211 22.3214Z" fill="#111111"/>
<path d="M2.69041 8.32728C2.91303 8.32728 3.09517 8.14513 3.09517 7.92252V7.11299H3.90469C4.12731 7.11299 4.30946 6.93085 4.30946 6.70823C4.30946 6.48561 4.12731 6.30347 3.90469 6.30347H2.69041C2.46779 6.30347 2.28564 6.48561 2.28564 6.70823V7.92252C2.28564 8.14513 2.46779 8.32728 2.69041 8.32728Z" fill="#FF8303"/>
<path d="M11.5952 6.30347H9.57143C9.34881 6.30347 9.16666 6.48561 9.16666 6.70823V8.73204C9.16666 8.95466 9.34881 9.1368 9.57143 9.1368H11.5952C11.8179 9.1368 12 8.95466 12 8.73204V6.70823C12 6.48561 11.8179 6.30347 11.5952 6.30347ZM11.1905 8.32728H9.97619V7.11299H11.1905V8.32728Z" fill="#FF8303"/>
<path d="M4.30946 13.5894H2.69041C2.46779 13.5894 2.28564 13.7715 2.28564 13.9941V15.6132C2.28564 15.8358 2.46779 16.0179 2.69041 16.0179H4.30946C4.53207 16.0179 4.71422 15.8358 4.71422 15.6132V13.9941C4.71422 13.7715 4.53207 13.5894 4.30946 13.5894ZM3.90469 15.2084H3.09517V14.3989H3.90469V15.2084Z" fill="#FF8303"/>
<path d="M11.5952 13.1845H9.57143C9.34881 13.1845 9.16666 13.3667 9.16666 13.5893V15.6131C9.16666 15.8357 9.34881 16.0178 9.57143 16.0178H11.5952C11.8179 16.0178 12 15.8357 12 15.6131V13.5893C12 13.3667 11.8179 13.1845 11.5952 13.1845ZM11.1905 15.2083H9.97619V13.994H11.1905V15.2083Z" fill="#FF8303"/>
<path d="M7.95244 9.13697C8.17506 9.13697 8.3572 8.95483 8.3572 8.73221V7.51792C8.3572 7.2953 8.17506 7.11316 7.95244 7.11316C7.72982 7.11316 7.54768 7.2953 7.54768 7.51792V8.73221C7.54768 8.95483 7.72982 9.13697 7.95244 9.13697Z" fill="#FF8303"/>
<path d="M5.52374 7.11299H6.33327V7.51775C6.33327 7.74037 6.51541 7.92252 6.73803 7.92252C6.96065 7.92252 7.14279 7.74037 7.14279 7.51775V6.70823C7.14279 6.48561 6.96065 6.30347 6.73803 6.30347H5.52374C5.30112 6.30347 5.11898 6.48561 5.11898 6.70823C5.11898 6.93085 5.30112 7.11299 5.52374 7.11299Z" fill="#FF8303"/>
<path d="M4.30946 11.9701H3.09517V9.54154C3.09517 9.31892 2.91303 9.13678 2.69041 9.13678C2.46779 9.13678 2.28564 9.31892 2.28564 9.54154V12.3749C2.28564 12.5975 2.46779 12.7796 2.69041 12.7796H4.30946C4.53207 12.7796 4.71422 12.5975 4.71422 12.3749C4.71422 12.1523 4.53207 11.9701 4.30946 11.9701Z" fill="#FF8303"/>
<path d="M3.90476 11.5656H5.11904C5.34166 11.5656 5.52381 11.3834 5.52381 11.1608C5.52381 10.9382 5.34166 10.756 5.11904 10.756H3.90476C3.68214 10.756 3.49999 10.9382 3.49999 11.1608C3.49999 11.3834 3.68214 11.5656 3.90476 11.5656Z" fill="#FF8303"/>
<path d="M5.52374 12.7799H6.33327C6.55589 12.7799 6.73803 12.5977 6.73803 12.3751V11.1608C6.73803 10.9382 6.55589 10.756 6.33327 10.756C6.11065 10.756 5.9285 10.9382 5.9285 11.1608V11.9703H5.52374C5.30112 11.9703 5.11898 12.1525 5.11898 12.3751C5.11898 12.5977 5.30112 12.7799 5.52374 12.7799Z" fill="#FF8303"/>
<path d="M6.33327 16.0178C6.55589 16.0178 6.73803 15.8356 6.73803 15.613C6.73803 15.3904 6.55589 15.2082 6.33327 15.2082H5.9285V14.3987C5.9285 14.1761 5.74636 13.994 5.52374 13.994C5.30112 13.994 5.11898 14.1761 5.11898 14.3987V15.613C5.11898 15.8356 5.30112 16.0178 5.52374 16.0178H6.33327Z" fill="#FF8303"/>
<path d="M8.35711 15.2083H7.54758C7.32497 15.2083 7.14282 15.3905 7.14282 15.6131C7.14282 15.8357 7.32497 16.0178 7.54758 16.0178H8.35711C8.57973 16.0178 8.76187 15.8357 8.76187 15.6131C8.76187 15.3905 8.57973 15.2083 8.35711 15.2083Z" fill="#FF8303"/>
<path d="M9.97625 11.9702H7.95244C7.72982 11.9702 7.54768 12.1523 7.54768 12.3749V13.5892C7.54768 13.8118 7.72982 13.994 7.95244 13.994C8.17506 13.994 8.3572 13.8118 8.3572 13.5892V12.7797H9.97625C10.1989 12.7797 10.381 12.5975 10.381 12.3749C10.381 12.1523 10.1989 11.9702 9.97625 11.9702Z" fill="#FF8303"/>
<path d="M8.35714 9.94645C8.35714 9.72383 8.175 9.54169 7.95238 9.54169H6.73809C6.51547 9.54169 6.33333 9.72383 6.33333 9.94645C6.33333 10.1691 6.51547 10.3512 6.73809 10.3512H7.54761V11.1607C7.54761 11.3834 7.72976 11.5655 7.95238 11.5655H8.35714C8.57976 11.5655 8.7619 11.3834 8.7619 11.1607C8.7619 10.9381 8.57976 10.756 8.35714 10.756V9.94645Z" fill="#FF8303"/>
<path d="M9.97619 10.756H9.57143C9.34881 10.756 9.16666 10.9382 9.16666 11.1608C9.16666 11.3834 9.34881 11.5656 9.57143 11.5656H9.97619C10.1988 11.5656 10.381 11.3834 10.381 11.1608C10.381 10.9382 10.1988 10.756 9.97619 10.756Z" fill="#FF8303"/>
<path d="M6.73809 14.8036C6.96071 14.8036 7.14285 14.6214 7.14285 14.3988V13.5893C7.14285 13.3667 6.96071 13.1845 6.73809 13.1845C6.51547 13.1845 6.33333 13.3667 6.33333 13.5893V14.3988C6.33333 14.6214 6.51547 14.8036 6.73809 14.8036Z" fill="#FF8303"/>
<path d="M3.90476 9.9464H5.52381C5.74642 9.9464 5.92857 9.76425 5.92857 9.54163V7.92258C5.92857 7.69997 5.74642 7.51782 5.52381 7.51782H3.90476C3.68214 7.51782 3.49999 7.69997 3.49999 7.92258V9.54163C3.49999 9.76425 3.68214 9.9464 3.90476 9.9464ZM4.30952 8.32735H5.11904V9.13687H4.30952V8.32735Z" fill="#FF8303"/>
<path d="M11.5952 9.54169H9.57143C9.34881 9.54169 9.16666 9.72383 9.16666 9.94645C9.16666 10.1691 9.34881 10.3512 9.57143 10.3512H11.1905V11.5655C11.1905 11.7881 11.3726 11.9703 11.5952 11.9703C11.8179 11.9703 12 11.7881 12 11.5655V9.94645C12 9.72383 11.8179 9.54169 11.5952 9.54169Z" fill="#FF8303"/>
</svg>
