<svg width="21" height="20" viewBox="0 0 21 20" fill="none" xmlns="http://www.w3.org/2000/svg">
<path d="M9.6598 11.7759C9.73485 11.851 9.83665 11.8931 9.94279 11.8931C10.0489 11.8931 10.1507 11.851 10.2258 11.7759C10.3008 11.7009 10.343 11.5991 10.343 11.4929C10.343 11.3868 10.3008 11.285 10.2258 11.2099C9.92657 10.91 9.75854 10.5036 9.75854 10.0799C9.75854 9.65627 9.92657 9.24989 10.2258 8.94995L11.3458 7.82997C11.6519 7.56535 12.0469 7.42654 12.4512 7.44149C12.8556 7.45644 13.2392 7.62403 13.525 7.91052C13.8107 8.19702 13.9773 8.58113 13.9912 8.98552C14.005 9.38991 13.8652 9.78453 13.5997 10.0899L12.7398 10.9499C12.6647 11.025 12.6225 11.1268 12.6225 11.2329C12.6225 11.3391 12.6647 11.4409 12.7398 11.5159C12.8148 11.591 12.9166 11.6331 13.0228 11.6331C13.1289 11.6331 13.2307 11.591 13.3057 11.5159L14.1657 10.6559C14.6166 10.2051 14.8699 9.59357 14.8699 8.95595C14.8699 8.31834 14.6166 7.70683 14.1657 7.25597C13.7149 6.80511 13.1034 6.55182 12.4658 6.55182C11.8281 6.55182 11.2166 6.80511 10.7658 7.25597L9.6458 8.37596C9.42297 8.59984 9.24653 8.86551 9.1266 9.15773C9.00667 9.44995 8.9456 9.76297 8.9469 10.0788C8.94821 10.3947 9.01185 10.7072 9.13418 10.9984C9.25651 11.2897 9.43513 11.5539 9.6598 11.7759Z" fill="#FF8303"/>
<path d="M8.17992 10.9818C8.25498 10.9068 8.29714 10.805 8.29714 10.6989C8.29714 10.5927 8.25498 10.4909 8.17992 10.4159C8.10487 10.3408 8.00307 10.2986 7.89693 10.2986C7.79078 10.2986 7.68899 10.3408 7.61393 10.4159L6.81394 11.2158C6.36308 11.6667 6.10979 12.2782 6.10979 12.9158C6.10979 13.5534 6.36308 14.1649 6.81394 14.6158C7.2648 15.0667 7.8763 15.32 8.51392 15.32C9.15153 15.32 9.76304 15.0667 10.2139 14.6158L11.3359 13.4958C11.5596 13.2728 11.7372 13.0079 11.8583 12.7162C11.9794 12.4245 12.0418 12.1117 12.0418 11.7958C12.0418 11.48 11.9794 11.1672 11.8583 10.8755C11.7372 10.5838 11.5596 10.3188 11.3359 10.0959C11.2987 10.0587 11.2546 10.0292 11.206 10.0091C11.1575 9.98899 11.1054 9.97864 11.0529 9.97864C11.0003 9.97864 10.9483 9.98899 10.8997 10.0091C10.8512 10.0292 10.8071 10.0587 10.7699 10.0959C10.7327 10.133 10.7032 10.1771 10.6831 10.2257C10.663 10.2743 10.6527 10.3263 10.6527 10.3789C10.6527 10.4314 10.663 10.4835 10.6831 10.532C10.7032 10.5806 10.7327 10.6247 10.7699 10.6619C11.0691 10.9618 11.2371 11.3682 11.2371 11.7918C11.2371 12.2155 11.0691 12.6219 10.7699 12.9218L9.6499 14.0418C9.50376 14.2 9.32717 14.3271 9.13072 14.4155C8.93427 14.5038 8.72201 14.5516 8.50665 14.5559C8.2913 14.5602 8.07729 14.521 7.87746 14.4406C7.67763 14.3602 7.49608 14.2403 7.3437 14.0881C7.19133 13.9358 7.07126 13.7544 6.9907 13.5546C6.91014 13.3549 6.87074 13.1409 6.87487 12.9255C6.879 12.7102 6.92658 12.4979 7.01474 12.3014C7.1029 12.1048 7.22983 11.9281 7.38793 11.7818L8.17992 10.9818Z" fill="#FF8303"/>
<path d="M0 9.99987C0 10.5303 0.210711 11.039 0.585779 11.4141C0.960847 11.7891 1.46955 11.9998 1.99997 11.9998H5.21193C5.31802 11.9998 5.41976 11.9577 5.49477 11.8827C5.56979 11.8077 5.61193 11.7059 5.61193 11.5999C5.61193 11.4938 5.56979 11.392 5.49477 11.317C5.41976 11.242 5.31802 11.1999 5.21193 11.1999H1.99997C1.68172 11.1999 1.3765 11.0734 1.15146 10.8484C0.926416 10.6233 0.79999 10.3181 0.79999 9.99987V1.99997C0.79999 1.68172 0.926416 1.3765 1.15146 1.15146C1.3765 0.926416 1.68172 0.79999 1.99997 0.79999H14.7998C15.1181 0.79999 15.4233 0.926416 15.6483 1.15146C15.8734 1.3765 15.9998 1.68172 15.9998 1.99997V9.99987C15.9998 10.3181 15.8734 10.6233 15.6483 10.8484C15.4233 11.0734 15.1181 11.1999 14.7998 11.1999C14.6937 11.1999 14.592 11.242 14.517 11.317C14.442 11.392 14.3998 11.4938 14.3998 11.5999C14.3998 11.7059 14.442 11.8077 14.517 11.8827C14.592 11.9577 14.6937 11.9998 14.7998 11.9998C15.0625 11.9998 15.3225 11.9481 15.5652 11.8476C15.8078 11.7471 16.0283 11.5998 16.214 11.4141C16.3997 11.2284 16.547 11.0079 16.6475 10.7652C16.7481 10.5226 16.7998 10.2625 16.7998 9.99987V1.99997C16.7998 1.73733 16.7481 1.47727 16.6475 1.23462C16.547 0.991969 16.3997 0.771494 16.214 0.585779C16.0283 0.400064 15.8078 0.252747 15.5652 0.152239C15.3225 0.0517307 15.0625 0 14.7998 0H1.99997C1.46955 0 0.960847 0.210711 0.585779 0.585779C0.210711 0.960847 0 1.46955 0 1.99997V9.99987Z" fill="#111111"/>
<path d="M20.7998 10.0002C20.7998 9.46973 20.589 8.96103 20.214 8.58596C19.8389 8.21089 19.3302 8.00018 18.7998 8.00018H17.9998C17.8937 8.00018 17.792 8.04233 17.717 8.11734C17.6419 8.19235 17.5998 8.29409 17.5998 8.40018C17.5998 8.50626 17.6419 8.608 17.717 8.68302C17.792 8.75803 17.8937 8.80017 17.9998 8.80017H18.7998C19.118 8.80017 19.4233 8.9266 19.6483 9.15164C19.8733 9.37668 19.9998 9.6819 19.9998 10.0002V18.0001C19.9998 18.3183 19.8733 18.6235 19.6483 18.8486C19.4233 19.0736 19.118 19.2 18.7998 19.2H5.99994C5.68169 19.2 5.37647 19.0736 5.15143 18.8486C4.92639 18.6235 4.79996 18.3183 4.79996 18.0001V13.2001C4.79996 13.094 4.75782 12.9923 4.6828 12.9173C4.60779 12.8423 4.50605 12.8001 4.39996 12.8001C4.29388 12.8001 4.19214 12.8423 4.11712 12.9173C4.04211 12.9923 3.99997 13.094 3.99997 13.2001V18.0001C3.99997 18.5305 4.21068 19.0392 4.58575 19.4143C4.96082 19.7893 5.46952 20 5.99994 20H18.7998C19.3302 20 19.8389 19.7893 20.214 19.4143C20.589 19.0392 20.7998 18.5305 20.7998 18.0001V10.0002Z" fill="#111111"/>
<path d="M5.99989 3.99994H2.79993C2.69384 3.99994 2.5921 4.04208 2.51709 4.11709C2.44208 4.19211 2.39993 4.29385 2.39993 4.39993V6.7999C2.39993 6.90599 2.44208 7.00773 2.51709 7.08274C2.5921 7.15776 2.69384 7.1999 2.79993 7.1999H5.99989C6.10597 7.1999 6.20771 7.15776 6.28273 7.08274C6.35774 7.00773 6.39988 6.90599 6.39988 6.7999V4.39993C6.39988 4.29385 6.35774 4.19211 6.28273 4.11709C6.20771 4.04208 6.10597 3.99994 5.99989 3.99994ZM5.59989 6.39991H3.19992V4.79993H5.59989V6.39991Z" fill="#111111"/>
<path d="M6.7999 16.8C6.69381 16.8 6.59207 16.8421 6.51706 16.9171C6.44204 16.9922 6.3999 17.0939 6.3999 17.2C6.3999 17.3061 6.44204 17.4078 6.51706 17.4828C6.59207 17.5578 6.69381 17.6 6.7999 17.6H9.99986C10.1059 17.6 10.2077 17.5578 10.2827 17.4828C10.3577 17.4078 10.3999 17.3061 10.3999 17.2C10.3999 17.0939 10.3577 16.9922 10.2827 16.9171C10.2077 16.8421 10.1059 16.8 9.99986 16.8H6.7999Z" fill="#111111"/>
<path d="M11.1998 17.2C11.1998 17.3061 11.2419 17.4078 11.3169 17.4828C11.3919 17.5578 11.4937 17.6 11.5998 17.6H17.9997C18.1058 17.6 18.2075 17.5578 18.2825 17.4828C18.3575 17.4078 18.3997 17.3061 18.3997 17.2C18.3997 17.0939 18.3575 16.9922 18.2825 16.9171C18.2075 16.8421 18.1058 16.8 17.9997 16.8H11.5998C11.4937 16.8 11.3919 16.8421 11.3169 16.9171C11.2419 16.9922 11.1998 17.0939 11.1998 17.2Z" fill="#111111"/>
<path d="M13.9998 3.19995C14.1059 3.19995 14.2077 3.15781 14.2827 3.0828C14.3577 3.00778 14.3998 2.90604 14.3998 2.79996C14.3998 2.69387 14.3577 2.59213 14.2827 2.51712C14.2077 2.44211 14.1059 2.39996 13.9998 2.39996H10.7999C10.6938 2.39996 10.592 2.44211 10.517 2.51712C10.442 2.59213 10.3999 2.69387 10.3999 2.79996C10.3999 2.90604 10.442 3.00778 10.517 3.0828C10.592 3.15781 10.6938 3.19995 10.7999 3.19995H13.9998Z" fill="#111111"/>
</svg>
