<svg width="13" height="12" viewBox="0 0 13 12" fill="none" xmlns="http://www.w3.org/2000/svg">
<path fill-rule="evenodd" clip-rule="evenodd" d="M6.89404 8.62232L9.41021 11.1385C9.65587 11.3841 10.0541 11.3841 10.2998 11.1385L12.8159 8.62232C13.0616 8.37666 13.0616 7.97843 12.8159 7.73277C12.5703 7.48711 12.172 7.48711 11.9264 7.73277L10.484 9.17504V0.629042C10.484 0.281635 10.2024 0 9.85499 0C9.50759 0 9.22594 0.281635 9.22594 0.629042V9.17504L7.78359 7.73277C7.53793 7.48711 7.13971 7.48711 6.89404 7.73277C6.64838 7.97843 6.64838 8.37666 6.89404 8.62232ZM3.59001 0.184242C3.34435 -0.0614114 2.94606 -0.0614114 2.70041 0.184242L0.18424 2.70041C-0.0614134 2.94606 -0.0614134 3.34435 0.18424 3.59001C0.429893 3.83566 0.828186 3.83566 1.07384 3.59001L2.51617 2.14768V10.6937C2.51617 11.0411 2.7978 11.3228 3.14521 11.3228C3.49261 11.3228 3.77425 11.0411 3.77425 10.6937V2.14768L5.2166 3.59001C5.46226 3.83566 5.86049 3.83566 6.10615 3.59001C6.35181 3.34435 6.35181 2.94606 6.10615 2.70041L3.59001 0.184242Z" fill="currentColor"/>
</svg>
