<svg width="16" height="22" viewBox="0 0 16 22" fill="none" xmlns="http://www.w3.org/2000/svg">
<path d="M15.8672 20.7598L10.7199 13.4786L15.0254 8.35736C15.1229 8.24165 15.1845 8.10101 15.203 7.95207C15.2214 7.80313 15.196 7.65212 15.1296 7.51691C15.0646 7.38325 14.9624 7.2703 14.8347 7.19109C14.7071 7.11187 14.5591 7.06962 14.408 7.0692H10.1587L13.502 1.17038C13.5724 1.05097 13.6094 0.915523 13.6094 0.777646C13.6094 0.639768 13.5724 0.50432 13.502 0.384914C13.4304 0.26651 13.3282 0.168631 13.2058 0.101083C13.0834 0.0335345 12.945 -0.00131084 12.8045 3.77066e-05H7.19212C7.04707 0.000416857 6.90485 0.0393345 6.7806 0.112645C6.65635 0.185955 6.55473 0.290911 6.48656 0.416333L4.29774 4.39077L1.43544 0.337787C1.30958 0.178729 1.1262 0.0730668 0.923137 0.0426019C0.720075 0.0121369 0.512824 0.0591935 0.344144 0.174062C0.175464 0.288931 0.0582258 0.462848 0.0166191 0.659929C-0.0249875 0.85701 0.0122116 1.06222 0.120541 1.23321L3.44787 5.94599L0.874201 10.6588C0.816614 10.7771 0.79019 10.9077 0.797339 11.0387C0.804488 11.1696 0.844982 11.2967 0.91513 11.4084C0.985277 11.52 1.08284 11.6127 1.19894 11.678C1.31503 11.7432 1.44595 11.779 1.57976 11.782H5.30797L2.38152 20.9797C2.3258 21.154 2.3338 21.3419 2.40415 21.511C2.4745 21.6801 2.60281 21.8199 2.767 21.9064C2.93119 21.9928 3.121 22.0206 3.30379 21.9848C3.48659 21.949 3.65094 21.8519 3.76858 21.7102L9.62949 14.7353L14.5203 21.6552C14.6416 21.8258 14.8271 21.9423 15.036 21.9791C15.245 22.0159 15.4603 21.9701 15.6347 21.8516C15.7235 21.7952 15.8 21.7221 15.8598 21.6365C15.9196 21.551 15.9615 21.4547 15.9831 21.3532C16.0047 21.2517 16.0056 21.147 15.9857 21.0451C15.9658 20.9433 15.9256 20.8463 15.8672 20.7598ZM2.9187 10.211L4.47413 7.39124L6.47053 10.211H2.9187ZM5.1396 17.6415L7.19212 11.2243L8.73952 13.4157L5.1396 17.6415ZM5.324 5.85959L7.67318 1.57096H11.4415L8.09811 7.46979C8.02774 7.58919 7.99069 7.72464 7.99069 7.86252C7.99069 8.00039 8.02774 8.13584 8.09811 8.25525C8.16976 8.37365 8.27191 8.47153 8.39434 8.53908C8.51676 8.60663 8.65515 8.64147 8.79565 8.64012H12.7083L9.7738 12.1354L5.324 5.85959Z" fill="white"/>
</svg>
