<svg width="23" height="15" viewBox="0 0 23 15" fill="none" xmlns="http://www.w3.org/2000/svg">
<path d="M19.6479 0H2.74648C1.23169 0 0 1.23275 0 2.74648V12.2535C0 13.7683 1.23275 15 2.74648 15H19.6479C21.1627 15 22.3944 13.7673 22.3944 12.2535V2.74648C22.3944 1.23169 21.1627 0 19.6479 0ZM21.1268 12.2535C21.1268 13.069 20.4623 13.7324 19.6479 13.7324H2.74648C1.93099 13.7324 1.26761 13.069 1.26761 12.2535V5.31761H21.1268V12.2535ZM21.1268 4.04894H1.26761V2.74648C1.26761 1.93099 1.93099 1.26761 2.74648 1.26761H19.6479C20.4623 1.26761 21.1268 1.93099 21.1268 2.74648V4.04894Z" fill="white"/>
<rect x="14.1438" y="10.6079" width="3.53595" height="1.17865" rx="0.589325" fill="#FF8303"/>
</svg>
